<svg width="87" height="27" viewBox="0 0 87 27" fill="none" xmlns="http://www.w3.org/2000/svg">
<mask id="path-1-outside-1_6_7" maskUnits="userSpaceOnUse" x="0" y="0" width="87" height="27" fill="black">
<rect fill="white" width="87" height="27"/>
<path d="M2 13.5C2 7.14873 7.14873 2 13.5 2H73.5C79.8513 2 85 7.14873 85 13.5C85 19.8513 79.8513 25 73.5 25H13.5C7.14873 25 2 19.8513 2 13.5Z"/>
<path d="M8.404 17.048C8.116 17.048 7.86 16.924 7.636 16.676C7.412 16.42 7.3 16.024 7.3 15.488C7.3 15.112 7.348 14.736 7.444 14.36C7.548 13.984 7.652 13.64 7.756 13.328C7.916 12.816 8.056 12.344 8.176 11.912C8.296 11.48 8.356 11.068 8.356 10.676C8.356 10.404 8.324 10.216 8.26 10.112C8.204 10.008 8.128 9.956 8.032 9.956C7.928 9.956 7.812 10.012 7.684 10.124C7.564 10.236 7.444 10.408 7.324 10.64L7.24 10.616C7.256 10.152 7.356 9.752 7.54 9.416C7.724 9.08 7.956 8.82 8.236 8.636C8.516 8.452 8.804 8.36 9.1 8.36C9.436 8.36 9.724 8.496 9.964 8.768C10.204 9.032 10.324 9.492 10.324 10.148C10.324 10.492 10.288 10.852 10.216 11.228C10.152 11.604 10.076 11.98 9.988 12.356C10.26 12.244 10.548 12.164 10.852 12.116C11.156 12.068 11.48 12.044 11.824 12.044H12.136C12.24 11.644 12.328 11.252 12.4 10.868C12.48 10.476 12.52 10.112 12.52 9.776C12.52 9.656 12.512 9.544 12.496 9.44C12.488 9.336 12.476 9.236 12.46 9.14V9.044C12.58 8.828 12.752 8.656 12.976 8.528C13.208 8.4 13.44 8.336 13.672 8.336C13.936 8.336 14.168 8.424 14.368 8.6C14.568 8.768 14.668 9.04 14.668 9.416C14.668 9.696 14.612 10.056 14.5 10.496C14.396 10.936 14.276 11.388 14.14 11.852C13.98 12.42 13.832 12.972 13.696 13.508C13.568 14.036 13.504 14.484 13.504 14.852C13.504 15.1 13.544 15.296 13.624 15.44C13.704 15.584 13.832 15.656 14.008 15.656C14.248 15.656 14.428 15.54 14.548 15.308L14.62 15.344C14.612 15.68 14.52 15.976 14.344 16.232C14.168 16.488 13.948 16.688 13.684 16.832C13.428 16.976 13.164 17.048 12.892 17.048C12.652 17.048 12.424 16.988 12.208 16.868C12 16.74 11.828 16.544 11.692 16.28C11.564 16.016 11.5 15.672 11.5 15.248C11.5 14.968 11.528 14.664 11.584 14.336C11.648 14 11.72 13.66 11.8 13.316C11.432 13.292 11.072 13.28 10.72 13.28C10.544 13.28 10.376 13.284 10.216 13.292C10.056 13.3 9.904 13.312 9.76 13.328C9.688 13.648 9.624 13.964 9.568 14.276C9.52 14.58 9.496 14.876 9.496 15.164C9.496 15.324 9.504 15.484 9.52 15.644C9.544 15.796 9.58 15.944 9.628 16.088C9.5 16.4 9.32 16.64 9.088 16.808C8.864 16.968 8.636 17.048 8.404 17.048Z"/>
<path d="M17.6275 17.084C17.0435 17.084 16.5595 16.968 16.1755 16.736C15.7915 16.496 15.5035 16.184 15.3115 15.8C15.1195 15.408 15.0235 14.988 15.0235 14.54C15.0235 14.116 15.1035 13.692 15.2635 13.268C15.4315 12.836 15.6715 12.444 15.9835 12.092C16.3035 11.74 16.6875 11.456 17.1355 11.24C17.5915 11.024 18.1035 10.916 18.6715 10.916C19.3755 10.916 19.8875 11.076 20.2075 11.396C20.5355 11.708 20.6995 12.088 20.6995 12.536C20.6995 12.92 20.5955 13.276 20.3875 13.604C20.1875 13.924 19.9195 14.184 19.5835 14.384C19.2475 14.576 18.8795 14.672 18.4795 14.672C18.2715 14.672 18.0595 14.64 17.8435 14.576C17.6275 14.512 17.4155 14.412 17.2075 14.276C17.2475 14.772 17.3915 15.132 17.6395 15.356C17.8875 15.58 18.1835 15.692 18.5275 15.692C18.7675 15.692 19.0075 15.648 19.2475 15.56C19.4875 15.464 19.7075 15.344 19.9075 15.2C20.1155 15.048 20.2755 14.888 20.3875 14.72L20.4715 14.78C20.4715 15.196 20.3835 15.552 20.2075 15.848C20.0395 16.136 19.8155 16.372 19.5355 16.556C19.2555 16.74 18.9475 16.876 18.6115 16.964C18.2835 17.044 17.9555 17.084 17.6275 17.084ZM17.9035 13.844C18.1595 13.844 18.3675 13.772 18.5275 13.628C18.6875 13.476 18.8075 13.3 18.8875 13.1C18.9675 12.9 19.0075 12.724 19.0075 12.572C19.0075 12.388 18.9555 12.236 18.8515 12.116C18.7475 11.988 18.6035 11.924 18.4195 11.924C18.2755 11.924 18.1155 11.976 17.9395 12.08C17.7715 12.184 17.6195 12.364 17.4835 12.62C17.3475 12.868 17.2595 13.216 17.2195 13.664C17.4755 13.784 17.7035 13.844 17.9035 13.844Z"/>
<path d="M22.6264 17.048C22.4104 17.048 22.1984 16.996 21.9904 16.892C21.7904 16.78 21.6264 16.604 21.4984 16.364C21.3704 16.124 21.3064 15.816 21.3064 15.44C21.3064 15.104 21.3504 14.712 21.4384 14.264C21.5344 13.808 21.6384 13.336 21.7504 12.848C21.8704 12.36 21.9744 11.884 22.0624 11.42C22.1504 10.956 22.1904 10.544 22.1824 10.184C22.1824 9.84 22.1424 9.596 22.0624 9.452L22.0504 9.416C22.1384 9.16 22.2944 8.96 22.5184 8.816C22.7424 8.672 22.9784 8.6 23.2264 8.6C23.5064 8.6 23.7544 8.708 23.9704 8.924C24.1944 9.132 24.3064 9.484 24.3064 9.98C24.3064 10.244 24.2744 10.56 24.2104 10.928C24.1464 11.288 24.0704 11.676 23.9824 12.092C23.8944 12.5 23.8024 12.904 23.7064 13.304C23.6184 13.704 23.5424 14.072 23.4784 14.408C23.4144 14.744 23.3824 15.02 23.3824 15.236C23.3824 15.46 23.4144 15.616 23.4784 15.704C23.5424 15.784 23.6144 15.824 23.6944 15.824C23.7824 15.824 23.8664 15.792 23.9464 15.728C24.0264 15.656 24.0784 15.592 24.1024 15.536L24.1984 15.56C24.1904 15.848 24.1064 16.104 23.9464 16.328C23.7944 16.552 23.5984 16.728 23.3584 16.856C23.1264 16.984 22.8824 17.048 22.6264 17.048Z"/>
<path d="M26.6304 17.048C26.3744 17.048 26.1304 16.992 25.8984 16.88C25.6744 16.76 25.4904 16.576 25.3464 16.328C25.2104 16.08 25.1424 15.764 25.1424 15.38C25.1424 15.172 25.1624 14.9 25.2024 14.564C25.2424 14.228 25.2944 13.86 25.3584 13.46C25.4304 13.06 25.5024 12.66 25.5744 12.26C25.4144 12.268 25.2584 12.284 25.1064 12.308C24.9624 12.332 24.8184 12.36 24.6744 12.392L24.6504 12.308C24.8104 12.116 24.9784 11.952 25.1544 11.816C25.3304 11.68 25.5144 11.568 25.7064 11.48C25.8104 10.952 25.8984 10.496 25.9704 10.112C26.0424 9.72 26.0784 9.488 26.0784 9.416C26.0784 9.28 26.1824 9.168 26.3904 9.08C26.6064 8.992 26.8464 8.948 27.1104 8.948C27.3424 8.948 27.5584 8.992 27.7584 9.08C27.9664 9.168 28.1064 9.316 28.1784 9.524C28.1304 9.572 28.0624 9.752 27.9744 10.064C27.8864 10.368 27.7944 10.74 27.6984 11.18C27.8504 11.188 28.0064 11.196 28.1664 11.204C28.3264 11.212 28.4904 11.224 28.6584 11.24C28.6744 11.288 28.6864 11.34 28.6944 11.396C28.7024 11.452 28.7064 11.512 28.7064 11.576C28.7064 11.696 28.6864 11.828 28.6464 11.972C28.6144 12.108 28.5744 12.232 28.5264 12.344C28.3344 12.328 28.1544 12.312 27.9864 12.296C27.8184 12.272 27.6544 12.256 27.4944 12.248C27.4304 12.592 27.3704 12.936 27.3144 13.28C27.2664 13.624 27.2264 13.936 27.1944 14.216C27.1704 14.496 27.1584 14.716 27.1584 14.876C27.1584 15.212 27.2184 15.436 27.3384 15.548C27.4664 15.66 27.6184 15.716 27.7944 15.716C27.9544 15.716 28.0984 15.684 28.2264 15.62C28.3544 15.556 28.4464 15.48 28.5024 15.392L28.6224 15.428C28.5744 15.756 28.4464 16.044 28.2384 16.292C28.0304 16.532 27.7824 16.72 27.4944 16.856C27.2064 16.984 26.9184 17.048 26.6304 17.048Z"/>
<path d="M30.3569 17.048C30.0129 17.048 29.7369 16.932 29.5289 16.7C29.3209 16.468 29.2169 16.152 29.2169 15.752C29.2169 15.536 29.2449 15.256 29.3009 14.912C29.3569 14.56 29.4249 14.176 29.5049 13.76C29.5929 13.336 29.6769 12.908 29.7569 12.476C29.8369 12.036 29.9049 11.612 29.9609 11.204C30.0169 10.796 30.0449 10.436 30.0449 10.124C30.0449 9.732 29.9929 9.448 29.8889 9.272V9.2C30.0649 9 30.2569 8.852 30.4649 8.756C30.6729 8.66 30.8769 8.612 31.0769 8.612C31.3809 8.612 31.6409 8.72 31.8569 8.936C32.0729 9.152 32.1809 9.476 32.1809 9.908C32.1809 10.14 32.1489 10.424 32.0849 10.76C32.0209 11.096 31.9449 11.448 31.8569 11.816C31.7689 12.184 31.6809 12.528 31.5929 12.848C31.7449 12.552 31.9449 12.26 32.1929 11.972C32.4489 11.676 32.7369 11.432 33.0569 11.24C33.3849 11.048 33.7249 10.952 34.0769 10.952C34.4769 10.952 34.7449 11.076 34.8809 11.324C35.0249 11.572 35.0969 11.88 35.0969 12.248C35.0969 12.584 35.0609 12.944 34.9889 13.328C34.9169 13.704 34.8449 14.068 34.7729 14.42C34.7009 14.764 34.6649 15.052 34.6649 15.284C34.6649 15.62 34.7649 15.788 34.9649 15.788C35.0529 15.788 35.1289 15.764 35.1929 15.716C35.2649 15.66 35.3169 15.6 35.3489 15.536L35.4329 15.596C35.4329 15.908 35.3569 16.172 35.2049 16.388C35.0529 16.604 34.8569 16.768 34.6169 16.88C34.3849 16.992 34.1449 17.048 33.8969 17.048C33.5689 17.048 33.2729 16.94 33.0089 16.724C32.7449 16.5 32.6129 16.14 32.6129 15.644C32.6129 15.364 32.6489 15.06 32.7209 14.732C32.8009 14.404 32.8769 14.088 32.9489 13.784C33.0209 13.472 33.0569 13.212 33.0569 13.004C33.0569 12.732 32.9609 12.596 32.7689 12.596C32.5929 12.596 32.4009 12.684 32.1929 12.86C31.9849 13.036 31.8009 13.256 31.6409 13.52C31.4889 13.784 31.3889 14.044 31.3409 14.3C31.3249 14.364 31.3169 14.44 31.3169 14.528C31.3169 14.728 31.3449 14.92 31.4009 15.104C31.4649 15.288 31.4969 15.504 31.4969 15.752C31.4969 16.12 31.4009 16.428 31.2089 16.676C31.0169 16.924 30.7329 17.048 30.3569 17.048Z"/>
<path d="M38.5081 19.4C38.1081 19.4 37.7841 19.276 37.5361 19.028C37.2961 18.788 37.1761 18.46 37.1761 18.044C37.1761 17.828 37.2121 17.588 37.2841 17.324C37.3641 17.068 37.4921 16.796 37.6681 16.508C37.2761 16.484 36.9521 16.352 36.6961 16.112C36.4481 15.872 36.3241 15.508 36.3241 15.02C36.3241 14.732 36.3601 14.424 36.4321 14.096C36.5121 13.76 36.5881 13.448 36.6601 13.16C36.7321 12.864 36.7681 12.636 36.7681 12.476C36.7681 12.356 36.7441 12.272 36.6961 12.224C36.6481 12.168 36.5921 12.14 36.5281 12.14C36.4641 12.14 36.3921 12.168 36.3121 12.224C36.2401 12.272 36.1841 12.348 36.1441 12.452L35.9401 12.236C35.9881 11.988 36.0921 11.768 36.2521 11.576C36.4121 11.384 36.6081 11.232 36.8401 11.12C37.0721 11.008 37.3121 10.952 37.5601 10.952C37.8401 10.952 38.0841 11.044 38.2921 11.228C38.5001 11.404 38.6041 11.728 38.6041 12.2C38.6041 12.496 38.5681 12.816 38.4961 13.16C38.4241 13.496 38.3521 13.816 38.2801 14.12C38.2081 14.416 38.1721 14.652 38.1721 14.828C38.1721 14.988 38.2041 15.108 38.2681 15.188C38.3401 15.26 38.4201 15.296 38.5081 15.296C38.6201 15.296 38.7481 15.236 38.8921 15.116C39.0361 14.988 39.1721 14.78 39.3001 14.492C39.4281 14.204 39.5121 13.816 39.5521 13.328C39.5681 13.176 39.5801 12.984 39.5881 12.752C39.5961 12.512 39.6041 12.292 39.6121 12.092C39.6201 11.884 39.6241 11.756 39.6241 11.708C39.6241 11.42 39.7281 11.22 39.9361 11.108C40.1521 10.988 40.3881 10.928 40.6441 10.928C40.8681 10.928 41.0801 10.972 41.2801 11.06C41.4801 11.148 41.6161 11.296 41.6881 11.504L41.7121 11.576C41.6401 11.64 41.5761 11.856 41.5201 12.224C41.4721 12.592 41.4121 13.084 41.3401 13.7C41.2921 14.1 41.2321 14.552 41.1601 15.056C41.0881 15.56 40.9881 16.068 40.8601 16.58C40.7401 17.084 40.5761 17.548 40.3681 17.972C40.1681 18.404 39.9161 18.748 39.6121 19.004C39.3081 19.268 38.9401 19.4 38.5081 19.4ZM38.2201 18.02C38.4681 18.02 38.6881 17.792 38.8801 17.336C39.0801 16.888 39.2361 16.248 39.3481 15.416C38.8361 16.072 38.4841 16.588 38.2921 16.964C38.1001 17.34 38.0041 17.612 38.0041 17.78C38.0041 17.94 38.0761 18.02 38.2201 18.02Z"/>
<path d="M45.5173 17.048C45.2293 17.048 44.9733 16.924 44.7493 16.676C44.5253 16.42 44.4133 16.024 44.4133 15.488C44.4133 15.112 44.4613 14.736 44.5573 14.36C44.6613 13.984 44.7653 13.64 44.8693 13.328C45.0293 12.816 45.1693 12.344 45.2893 11.912C45.4093 11.48 45.4693 11.068 45.4693 10.676C45.4693 10.404 45.4373 10.216 45.3733 10.112C45.3173 10.008 45.2413 9.956 45.1453 9.956C45.0413 9.956 44.9253 10.012 44.7973 10.124C44.6773 10.236 44.5573 10.408 44.4373 10.64L44.3533 10.616C44.3693 10.152 44.4693 9.752 44.6533 9.416C44.8373 9.08 45.0693 8.82 45.3493 8.636C45.6293 8.452 45.9173 8.36 46.2133 8.36C46.5493 8.36 46.8373 8.496 47.0773 8.768C47.3173 9.032 47.4373 9.492 47.4373 10.148C47.4373 10.492 47.4013 10.852 47.3293 11.228C47.2653 11.604 47.1893 11.98 47.1013 12.356C47.3733 12.244 47.6613 12.164 47.9653 12.116C48.2693 12.068 48.5933 12.044 48.9373 12.044H49.2493C49.3533 11.644 49.4413 11.252 49.5133 10.868C49.5933 10.476 49.6333 10.112 49.6333 9.776C49.6333 9.656 49.6253 9.544 49.6093 9.44C49.6013 9.336 49.5893 9.236 49.5733 9.14V9.044C49.6933 8.828 49.8653 8.656 50.0893 8.528C50.3213 8.4 50.5533 8.336 50.7853 8.336C51.0493 8.336 51.2813 8.424 51.4813 8.6C51.6813 8.768 51.7813 9.04 51.7813 9.416C51.7813 9.696 51.7253 10.056 51.6133 10.496C51.5093 10.936 51.3893 11.388 51.2533 11.852C51.0933 12.42 50.9453 12.972 50.8093 13.508C50.6813 14.036 50.6173 14.484 50.6173 14.852C50.6173 15.1 50.6573 15.296 50.7373 15.44C50.8173 15.584 50.9453 15.656 51.1213 15.656C51.3613 15.656 51.5413 15.54 51.6613 15.308L51.7333 15.344C51.7253 15.68 51.6333 15.976 51.4573 16.232C51.2813 16.488 51.0613 16.688 50.7973 16.832C50.5413 16.976 50.2773 17.048 50.0053 17.048C49.7653 17.048 49.5373 16.988 49.3213 16.868C49.1133 16.74 48.9413 16.544 48.8053 16.28C48.6773 16.016 48.6133 15.672 48.6133 15.248C48.6133 14.968 48.6413 14.664 48.6973 14.336C48.7613 14 48.8333 13.66 48.9133 13.316C48.5453 13.292 48.1853 13.28 47.8333 13.28C47.6573 13.28 47.4893 13.284 47.3293 13.292C47.1693 13.3 47.0173 13.312 46.8733 13.328C46.8013 13.648 46.7373 13.964 46.6813 14.276C46.6333 14.58 46.6093 14.876 46.6093 15.164C46.6093 15.324 46.6173 15.484 46.6333 15.644C46.6573 15.796 46.6933 15.944 46.7413 16.088C46.6133 16.4 46.4333 16.64 46.2013 16.808C45.9773 16.968 45.7493 17.048 45.5173 17.048Z"/>
<path d="M56.5757 17.06C56.2957 17.06 56.0517 16.968 55.8437 16.784C55.6357 16.6 55.5317 16.3 55.5317 15.884C55.5317 15.844 55.5317 15.804 55.5317 15.764C55.5317 15.724 55.5357 15.684 55.5437 15.644C55.3037 16.124 55.0317 16.48 54.7277 16.712C54.4317 16.936 54.1317 17.048 53.8277 17.048C53.5477 17.048 53.2837 16.952 53.0357 16.76C52.7877 16.56 52.5877 16.268 52.4357 15.884C52.2837 15.5 52.2077 15.036 52.2077 14.492C52.2077 13.932 52.2837 13.432 52.4357 12.992C52.5957 12.552 52.8037 12.18 53.0597 11.876C53.3157 11.572 53.5957 11.344 53.8997 11.192C54.2037 11.032 54.4997 10.952 54.7877 10.952C55.1077 10.952 55.3957 11.052 55.6517 11.252C55.9077 11.444 56.0837 11.752 56.1797 12.176C56.2037 12.04 56.2197 11.916 56.2277 11.804C56.2437 11.692 56.2517 11.616 56.2517 11.576C56.2597 11.36 56.3677 11.2 56.5757 11.096C56.7917 10.992 57.0277 10.94 57.2837 10.94C57.5077 10.94 57.7197 10.984 57.9197 11.072C58.1197 11.16 58.2557 11.308 58.3277 11.516L58.3517 11.588C58.2557 11.804 58.1597 12.064 58.0637 12.368C57.9677 12.672 57.8797 12.992 57.7997 13.328C57.7197 13.656 57.6557 13.98 57.6077 14.3C57.5597 14.612 57.5357 14.888 57.5357 15.128C57.5357 15.392 57.5637 15.576 57.6197 15.68C57.6757 15.776 57.7437 15.824 57.8237 15.824C57.9597 15.824 58.0837 15.728 58.1957 15.536L58.2917 15.584C58.2917 15.856 58.2037 16.104 58.0277 16.328C57.8517 16.552 57.6317 16.732 57.3677 16.868C57.1037 16.996 56.8397 17.06 56.5757 17.06ZM54.6197 15.536C54.8277 15.536 55.0557 15.352 55.3037 14.984C55.5597 14.608 55.7797 14.072 55.9637 13.376C55.9797 13.304 55.9957 13.236 56.0117 13.172C56.0277 13.1 56.0397 13.032 56.0477 12.968C55.9197 12.672 55.7837 12.464 55.6397 12.344C55.5037 12.216 55.3677 12.152 55.2317 12.152C55.0317 12.152 54.8437 12.26 54.6677 12.476C54.4997 12.684 54.3597 12.948 54.2477 13.268C54.1437 13.588 54.0917 13.908 54.0917 14.228C54.0917 14.668 54.1397 14.996 54.2357 15.212C54.3397 15.428 54.4677 15.536 54.6197 15.536Z"/>
<path d="M62.1605 17.048C61.8405 17.048 61.5485 16.98 61.2845 16.844C61.0205 16.7 60.8045 16.492 60.6365 16.22C60.6285 16.372 60.5725 16.512 60.4685 16.64C60.3645 16.768 60.1685 16.832 59.8805 16.832C59.5605 16.832 59.3245 16.744 59.1725 16.568C59.0205 16.392 58.9445 16.16 58.9445 15.872C58.9445 15.696 58.9685 15.444 59.0165 15.116C59.0645 14.78 59.1205 14.404 59.1845 13.988C59.2565 13.572 59.3245 13.14 59.3885 12.692C59.4605 12.244 59.5205 11.808 59.5685 11.384C59.6165 10.96 59.6405 10.58 59.6405 10.244C59.6405 10.02 59.6285 9.824 59.6045 9.656C59.5805 9.488 59.5365 9.356 59.4725 9.26V9.188C59.6565 8.988 59.8485 8.84 60.0485 8.744C60.2485 8.64 60.4405 8.588 60.6245 8.588C60.8965 8.588 61.1285 8.696 61.3205 8.912C61.5125 9.128 61.6085 9.472 61.6085 9.944C61.6085 10.176 61.5845 10.504 61.5365 10.928C61.4885 11.344 61.4285 11.76 61.3565 12.176C61.6445 11.768 61.9485 11.456 62.2685 11.24C62.5965 11.024 62.9125 10.916 63.2165 10.916C63.6245 10.916 63.9725 11.112 64.2605 11.504C64.5485 11.888 64.6925 12.472 64.6925 13.256C64.6925 13.72 64.6365 14.18 64.5245 14.636C64.4205 15.084 64.2605 15.492 64.0445 15.86C63.8285 16.22 63.5605 16.508 63.2405 16.724C62.9285 16.94 62.5685 17.048 62.1605 17.048ZM61.5605 15.836C61.8165 15.836 62.0325 15.724 62.2085 15.5C62.3925 15.276 62.5285 14.992 62.6165 14.648C62.7125 14.296 62.7605 13.936 62.7605 13.568C62.7605 13.328 62.7405 13.1 62.7005 12.884C62.6605 12.66 62.6005 12.48 62.5205 12.344C62.4405 12.2 62.3365 12.128 62.2085 12.128C61.9845 12.128 61.7285 12.392 61.4405 12.92C61.1605 13.44 60.9405 14.18 60.7805 15.14C60.9245 15.604 61.1845 15.836 61.5605 15.836Z"/>
<path d="M67.6121 10.58C67.2921 10.58 67.0281 10.484 66.8201 10.292C66.6201 10.092 66.5201 9.844 66.5201 9.548C66.5201 9.228 66.6401 8.952 66.8801 8.72C67.1201 8.488 67.4121 8.372 67.7561 8.372C68.0761 8.372 68.3361 8.472 68.5361 8.672C68.7441 8.872 68.8481 9.12 68.8481 9.416C68.8481 9.736 68.7281 10.012 68.4881 10.244C68.2481 10.468 67.9561 10.58 67.6121 10.58ZM66.7721 17.048C66.4601 17.048 66.1801 16.94 65.9321 16.724C65.6841 16.5 65.5601 16.144 65.5601 15.656C65.5601 15.376 65.5961 15.116 65.6681 14.876C65.7481 14.628 65.8361 14.388 65.9321 14.156C66.0361 13.924 66.1241 13.7 66.1961 13.484C66.2761 13.26 66.3161 13.04 66.3161 12.824C66.3161 12.632 66.2841 12.496 66.2201 12.416C66.1561 12.328 66.0801 12.284 65.9921 12.284C65.8561 12.284 65.7241 12.372 65.5961 12.548L65.5121 12.5C65.5441 12.18 65.6441 11.908 65.8121 11.684C65.9881 11.452 66.2001 11.272 66.4481 11.144C66.7041 11.016 66.9561 10.952 67.2041 10.952C67.5081 10.952 67.7721 11.052 67.9961 11.252C68.2201 11.444 68.3321 11.76 68.3321 12.2C68.3321 12.464 68.2921 12.744 68.2121 13.04C68.1401 13.328 68.0521 13.616 67.9481 13.904C67.8521 14.192 67.7641 14.46 67.6841 14.708C67.6121 14.956 67.5761 15.168 67.5761 15.344C67.5761 15.496 67.6041 15.604 67.6601 15.668C67.7241 15.732 67.7921 15.764 67.8641 15.764C67.9361 15.764 68.0041 15.744 68.0681 15.704C68.1401 15.656 68.1921 15.604 68.2241 15.548L68.3081 15.572C68.3081 15.868 68.2281 16.128 68.0681 16.352C67.9161 16.568 67.7241 16.74 67.4921 16.868C67.2601 16.988 67.0201 17.048 66.7721 17.048Z"/>
<path d="M70.9624 17.048C70.7064 17.048 70.4624 16.992 70.2304 16.88C70.0064 16.76 69.8224 16.576 69.6784 16.328C69.5424 16.08 69.4744 15.764 69.4744 15.38C69.4744 15.172 69.4944 14.9 69.5344 14.564C69.5744 14.228 69.6264 13.86 69.6904 13.46C69.7624 13.06 69.8344 12.66 69.9064 12.26C69.7464 12.268 69.5904 12.284 69.4384 12.308C69.2944 12.332 69.1504 12.36 69.0064 12.392L68.9824 12.308C69.1424 12.116 69.3104 11.952 69.4864 11.816C69.6624 11.68 69.8464 11.568 70.0384 11.48C70.1424 10.952 70.2304 10.496 70.3024 10.112C70.3744 9.72 70.4104 9.488 70.4104 9.416C70.4104 9.28 70.5144 9.168 70.7224 9.08C70.9384 8.992 71.1784 8.948 71.4424 8.948C71.6744 8.948 71.8904 8.992 72.0904 9.08C72.2984 9.168 72.4384 9.316 72.5104 9.524C72.4624 9.572 72.3944 9.752 72.3064 10.064C72.2184 10.368 72.1264 10.74 72.0304 11.18C72.1824 11.188 72.3384 11.196 72.4984 11.204C72.6584 11.212 72.8224 11.224 72.9904 11.24C73.0064 11.288 73.0184 11.34 73.0264 11.396C73.0344 11.452 73.0384 11.512 73.0384 11.576C73.0384 11.696 73.0184 11.828 72.9784 11.972C72.9464 12.108 72.9064 12.232 72.8584 12.344C72.6664 12.328 72.4864 12.312 72.3184 12.296C72.1504 12.272 71.9864 12.256 71.8264 12.248C71.7624 12.592 71.7024 12.936 71.6464 13.28C71.5984 13.624 71.5584 13.936 71.5264 14.216C71.5024 14.496 71.4904 14.716 71.4904 14.876C71.4904 15.212 71.5504 15.436 71.6704 15.548C71.7984 15.66 71.9504 15.716 72.1264 15.716C72.2864 15.716 72.4304 15.684 72.5584 15.62C72.6864 15.556 72.7784 15.48 72.8344 15.392L72.9544 15.428C72.9064 15.756 72.7784 16.044 72.5704 16.292C72.3624 16.532 72.1144 16.72 71.8264 16.856C71.5384 16.984 71.2504 17.048 70.9624 17.048Z"/>
<path d="M75.5289 17.108C75.0329 17.108 74.6209 17.04 74.2929 16.904C73.9649 16.768 73.7209 16.596 73.5609 16.388C73.4009 16.172 73.3209 15.956 73.3209 15.74C73.3209 15.436 73.4569 15.168 73.7289 14.936C74.0009 14.696 74.3689 14.576 74.8329 14.576C74.8329 14.984 74.8849 15.312 74.9889 15.56C75.0929 15.8 75.2249 15.972 75.3849 16.076C75.5529 16.18 75.7129 16.232 75.8649 16.232C76.0489 16.232 76.2009 16.18 76.3209 16.076C76.4489 15.964 76.5129 15.828 76.5129 15.668C76.5129 15.444 76.3969 15.248 76.1649 15.08C75.9329 14.912 75.6329 14.724 75.2649 14.516C75.0809 14.404 74.8809 14.276 74.6649 14.132C74.4489 13.98 74.2649 13.8 74.1129 13.592C73.9609 13.376 73.8849 13.12 73.8849 12.824C73.8849 12.512 73.9729 12.236 74.1489 11.996C74.3329 11.756 74.5729 11.556 74.8689 11.396C75.1649 11.228 75.4849 11.104 75.8289 11.024C76.1729 10.936 76.5089 10.892 76.8369 10.892C77.4529 10.892 77.9169 11.016 78.2289 11.264C78.5409 11.512 78.6969 11.776 78.6969 12.056C78.6969 12.296 78.5769 12.512 78.3369 12.704C78.0969 12.896 77.7289 12.992 77.2329 12.992C77.2409 12.584 77.1569 12.288 76.9809 12.104C76.8049 11.912 76.6169 11.816 76.4169 11.816C76.2729 11.816 76.1529 11.86 76.0569 11.948C75.9609 12.036 75.9129 12.164 75.9129 12.332C75.9129 12.524 75.9729 12.692 76.0929 12.836C76.2209 12.972 76.3769 13.096 76.5609 13.208C76.7529 13.312 76.9489 13.412 77.1489 13.508C77.4209 13.636 77.6769 13.772 77.9169 13.916C78.1569 14.06 78.3529 14.224 78.5049 14.408C78.6569 14.592 78.7329 14.816 78.7329 15.08C78.7329 15.44 78.5849 15.776 78.2889 16.088C78.0009 16.392 77.6129 16.64 77.1249 16.832C76.6369 17.016 76.1049 17.108 75.5289 17.108Z"/>
</mask>
<path d="M2 13.5C2 7.14873 7.14873 2 13.5 2H73.5C79.8513 2 85 7.14873 85 13.5C85 19.8513 79.8513 25 73.5 25H13.5C7.14873 25 2 19.8513 2 13.5Z" fill="#FFC16C" fill-opacity="0.8"/>
<path d="M8.404 17.048C8.116 17.048 7.86 16.924 7.636 16.676C7.412 16.42 7.3 16.024 7.3 15.488C7.3 15.112 7.348 14.736 7.444 14.36C7.548 13.984 7.652 13.64 7.756 13.328C7.916 12.816 8.056 12.344 8.176 11.912C8.296 11.48 8.356 11.068 8.356 10.676C8.356 10.404 8.324 10.216 8.26 10.112C8.204 10.008 8.128 9.956 8.032 9.956C7.928 9.956 7.812 10.012 7.684 10.124C7.564 10.236 7.444 10.408 7.324 10.64L7.24 10.616C7.256 10.152 7.356 9.752 7.54 9.416C7.724 9.08 7.956 8.82 8.236 8.636C8.516 8.452 8.804 8.36 9.1 8.36C9.436 8.36 9.724 8.496 9.964 8.768C10.204 9.032 10.324 9.492 10.324 10.148C10.324 10.492 10.288 10.852 10.216 11.228C10.152 11.604 10.076 11.98 9.988 12.356C10.26 12.244 10.548 12.164 10.852 12.116C11.156 12.068 11.48 12.044 11.824 12.044H12.136C12.24 11.644 12.328 11.252 12.4 10.868C12.48 10.476 12.52 10.112 12.52 9.776C12.52 9.656 12.512 9.544 12.496 9.44C12.488 9.336 12.476 9.236 12.46 9.14V9.044C12.58 8.828 12.752 8.656 12.976 8.528C13.208 8.4 13.44 8.336 13.672 8.336C13.936 8.336 14.168 8.424 14.368 8.6C14.568 8.768 14.668 9.04 14.668 9.416C14.668 9.696 14.612 10.056 14.5 10.496C14.396 10.936 14.276 11.388 14.14 11.852C13.98 12.42 13.832 12.972 13.696 13.508C13.568 14.036 13.504 14.484 13.504 14.852C13.504 15.1 13.544 15.296 13.624 15.44C13.704 15.584 13.832 15.656 14.008 15.656C14.248 15.656 14.428 15.54 14.548 15.308L14.62 15.344C14.612 15.68 14.52 15.976 14.344 16.232C14.168 16.488 13.948 16.688 13.684 16.832C13.428 16.976 13.164 17.048 12.892 17.048C12.652 17.048 12.424 16.988 12.208 16.868C12 16.74 11.828 16.544 11.692 16.28C11.564 16.016 11.5 15.672 11.5 15.248C11.5 14.968 11.528 14.664 11.584 14.336C11.648 14 11.72 13.66 11.8 13.316C11.432 13.292 11.072 13.28 10.72 13.28C10.544 13.28 10.376 13.284 10.216 13.292C10.056 13.3 9.904 13.312 9.76 13.328C9.688 13.648 9.624 13.964 9.568 14.276C9.52 14.58 9.496 14.876 9.496 15.164C9.496 15.324 9.504 15.484 9.52 15.644C9.544 15.796 9.58 15.944 9.628 16.088C9.5 16.4 9.32 16.64 9.088 16.808C8.864 16.968 8.636 17.048 8.404 17.048Z" fill="#2F5C0C"/>
<path d="M17.6275 17.084C17.0435 17.084 16.5595 16.968 16.1755 16.736C15.7915 16.496 15.5035 16.184 15.3115 15.8C15.1195 15.408 15.0235 14.988 15.0235 14.54C15.0235 14.116 15.1035 13.692 15.2635 13.268C15.4315 12.836 15.6715 12.444 15.9835 12.092C16.3035 11.74 16.6875 11.456 17.1355 11.24C17.5915 11.024 18.1035 10.916 18.6715 10.916C19.3755 10.916 19.8875 11.076 20.2075 11.396C20.5355 11.708 20.6995 12.088 20.6995 12.536C20.6995 12.92 20.5955 13.276 20.3875 13.604C20.1875 13.924 19.9195 14.184 19.5835 14.384C19.2475 14.576 18.8795 14.672 18.4795 14.672C18.2715 14.672 18.0595 14.64 17.8435 14.576C17.6275 14.512 17.4155 14.412 17.2075 14.276C17.2475 14.772 17.3915 15.132 17.6395 15.356C17.8875 15.58 18.1835 15.692 18.5275 15.692C18.7675 15.692 19.0075 15.648 19.2475 15.56C19.4875 15.464 19.7075 15.344 19.9075 15.2C20.1155 15.048 20.2755 14.888 20.3875 14.72L20.4715 14.78C20.4715 15.196 20.3835 15.552 20.2075 15.848C20.0395 16.136 19.8155 16.372 19.5355 16.556C19.2555 16.74 18.9475 16.876 18.6115 16.964C18.2835 17.044 17.9555 17.084 17.6275 17.084ZM17.9035 13.844C18.1595 13.844 18.3675 13.772 18.5275 13.628C18.6875 13.476 18.8075 13.3 18.8875 13.1C18.9675 12.9 19.0075 12.724 19.0075 12.572C19.0075 12.388 18.9555 12.236 18.8515 12.116C18.7475 11.988 18.6035 11.924 18.4195 11.924C18.2755 11.924 18.1155 11.976 17.9395 12.08C17.7715 12.184 17.6195 12.364 17.4835 12.62C17.3475 12.868 17.2595 13.216 17.2195 13.664C17.4755 13.784 17.7035 13.844 17.9035 13.844Z" fill="#2F5C0C"/>
<path d="M22.6264 17.048C22.4104 17.048 22.1984 16.996 21.9904 16.892C21.7904 16.78 21.6264 16.604 21.4984 16.364C21.3704 16.124 21.3064 15.816 21.3064 15.44C21.3064 15.104 21.3504 14.712 21.4384 14.264C21.5344 13.808 21.6384 13.336 21.7504 12.848C21.8704 12.36 21.9744 11.884 22.0624 11.42C22.1504 10.956 22.1904 10.544 22.1824 10.184C22.1824 9.84 22.1424 9.596 22.0624 9.452L22.0504 9.416C22.1384 9.16 22.2944 8.96 22.5184 8.816C22.7424 8.672 22.9784 8.6 23.2264 8.6C23.5064 8.6 23.7544 8.708 23.9704 8.924C24.1944 9.132 24.3064 9.484 24.3064 9.98C24.3064 10.244 24.2744 10.56 24.2104 10.928C24.1464 11.288 24.0704 11.676 23.9824 12.092C23.8944 12.5 23.8024 12.904 23.7064 13.304C23.6184 13.704 23.5424 14.072 23.4784 14.408C23.4144 14.744 23.3824 15.02 23.3824 15.236C23.3824 15.46 23.4144 15.616 23.4784 15.704C23.5424 15.784 23.6144 15.824 23.6944 15.824C23.7824 15.824 23.8664 15.792 23.9464 15.728C24.0264 15.656 24.0784 15.592 24.1024 15.536L24.1984 15.56C24.1904 15.848 24.1064 16.104 23.9464 16.328C23.7944 16.552 23.5984 16.728 23.3584 16.856C23.1264 16.984 22.8824 17.048 22.6264 17.048Z" fill="#2F5C0C"/>
<path d="M26.6304 17.048C26.3744 17.048 26.1304 16.992 25.8984 16.88C25.6744 16.76 25.4904 16.576 25.3464 16.328C25.2104 16.08 25.1424 15.764 25.1424 15.38C25.1424 15.172 25.1624 14.9 25.2024 14.564C25.2424 14.228 25.2944 13.86 25.3584 13.46C25.4304 13.06 25.5024 12.66 25.5744 12.26C25.4144 12.268 25.2584 12.284 25.1064 12.308C24.9624 12.332 24.8184 12.36 24.6744 12.392L24.6504 12.308C24.8104 12.116 24.9784 11.952 25.1544 11.816C25.3304 11.68 25.5144 11.568 25.7064 11.48C25.8104 10.952 25.8984 10.496 25.9704 10.112C26.0424 9.72 26.0784 9.488 26.0784 9.416C26.0784 9.28 26.1824 9.168 26.3904 9.08C26.6064 8.992 26.8464 8.948 27.1104 8.948C27.3424 8.948 27.5584 8.992 27.7584 9.08C27.9664 9.168 28.1064 9.316 28.1784 9.524C28.1304 9.572 28.0624 9.752 27.9744 10.064C27.8864 10.368 27.7944 10.74 27.6984 11.18C27.8504 11.188 28.0064 11.196 28.1664 11.204C28.3264 11.212 28.4904 11.224 28.6584 11.24C28.6744 11.288 28.6864 11.34 28.6944 11.396C28.7024 11.452 28.7064 11.512 28.7064 11.576C28.7064 11.696 28.6864 11.828 28.6464 11.972C28.6144 12.108 28.5744 12.232 28.5264 12.344C28.3344 12.328 28.1544 12.312 27.9864 12.296C27.8184 12.272 27.6544 12.256 27.4944 12.248C27.4304 12.592 27.3704 12.936 27.3144 13.28C27.2664 13.624 27.2264 13.936 27.1944 14.216C27.1704 14.496 27.1584 14.716 27.1584 14.876C27.1584 15.212 27.2184 15.436 27.3384 15.548C27.4664 15.66 27.6184 15.716 27.7944 15.716C27.9544 15.716 28.0984 15.684 28.2264 15.62C28.3544 15.556 28.4464 15.48 28.5024 15.392L28.6224 15.428C28.5744 15.756 28.4464 16.044 28.2384 16.292C28.0304 16.532 27.7824 16.72 27.4944 16.856C27.2064 16.984 26.9184 17.048 26.6304 17.048Z" fill="#2F5C0C"/>
<path d="M30.3569 17.048C30.0129 17.048 29.7369 16.932 29.5289 16.7C29.3209 16.468 29.2169 16.152 29.2169 15.752C29.2169 15.536 29.2449 15.256 29.3009 14.912C29.3569 14.56 29.4249 14.176 29.5049 13.76C29.5929 13.336 29.6769 12.908 29.7569 12.476C29.8369 12.036 29.9049 11.612 29.9609 11.204C30.0169 10.796 30.0449 10.436 30.0449 10.124C30.0449 9.732 29.9929 9.448 29.8889 9.272V9.2C30.0649 9 30.2569 8.852 30.4649 8.756C30.6729 8.66 30.8769 8.612 31.0769 8.612C31.3809 8.612 31.6409 8.72 31.8569 8.936C32.0729 9.152 32.1809 9.476 32.1809 9.908C32.1809 10.14 32.1489 10.424 32.0849 10.76C32.0209 11.096 31.9449 11.448 31.8569 11.816C31.7689 12.184 31.6809 12.528 31.5929 12.848C31.7449 12.552 31.9449 12.26 32.1929 11.972C32.4489 11.676 32.7369 11.432 33.0569 11.24C33.3849 11.048 33.7249 10.952 34.0769 10.952C34.4769 10.952 34.7449 11.076 34.8809 11.324C35.0249 11.572 35.0969 11.88 35.0969 12.248C35.0969 12.584 35.0609 12.944 34.9889 13.328C34.9169 13.704 34.8449 14.068 34.7729 14.42C34.7009 14.764 34.6649 15.052 34.6649 15.284C34.6649 15.62 34.7649 15.788 34.9649 15.788C35.0529 15.788 35.1289 15.764 35.1929 15.716C35.2649 15.66 35.3169 15.6 35.3489 15.536L35.4329 15.596C35.4329 15.908 35.3569 16.172 35.2049 16.388C35.0529 16.604 34.8569 16.768 34.6169 16.88C34.3849 16.992 34.1449 17.048 33.8969 17.048C33.5689 17.048 33.2729 16.94 33.0089 16.724C32.7449 16.5 32.6129 16.14 32.6129 15.644C32.6129 15.364 32.6489 15.06 32.7209 14.732C32.8009 14.404 32.8769 14.088 32.9489 13.784C33.0209 13.472 33.0569 13.212 33.0569 13.004C33.0569 12.732 32.9609 12.596 32.7689 12.596C32.5929 12.596 32.4009 12.684 32.1929 12.86C31.9849 13.036 31.8009 13.256 31.6409 13.52C31.4889 13.784 31.3889 14.044 31.3409 14.3C31.3249 14.364 31.3169 14.44 31.3169 14.528C31.3169 14.728 31.3449 14.92 31.4009 15.104C31.4649 15.288 31.4969 15.504 31.4969 15.752C31.4969 16.12 31.4009 16.428 31.2089 16.676C31.0169 16.924 30.7329 17.048 30.3569 17.048Z" fill="#2F5C0C"/>
<path d="M38.5081 19.4C38.1081 19.4 37.7841 19.276 37.5361 19.028C37.2961 18.788 37.1761 18.46 37.1761 18.044C37.1761 17.828 37.2121 17.588 37.2841 17.324C37.3641 17.068 37.4921 16.796 37.6681 16.508C37.2761 16.484 36.9521 16.352 36.6961 16.112C36.4481 15.872 36.3241 15.508 36.3241 15.02C36.3241 14.732 36.3601 14.424 36.4321 14.096C36.5121 13.76 36.5881 13.448 36.6601 13.16C36.7321 12.864 36.7681 12.636 36.7681 12.476C36.7681 12.356 36.7441 12.272 36.6961 12.224C36.6481 12.168 36.5921 12.14 36.5281 12.14C36.4641 12.14 36.3921 12.168 36.3121 12.224C36.2401 12.272 36.1841 12.348 36.1441 12.452L35.9401 12.236C35.9881 11.988 36.0921 11.768 36.2521 11.576C36.4121 11.384 36.6081 11.232 36.8401 11.12C37.0721 11.008 37.3121 10.952 37.5601 10.952C37.8401 10.952 38.0841 11.044 38.2921 11.228C38.5001 11.404 38.6041 11.728 38.6041 12.2C38.6041 12.496 38.5681 12.816 38.4961 13.16C38.4241 13.496 38.3521 13.816 38.2801 14.12C38.2081 14.416 38.1721 14.652 38.1721 14.828C38.1721 14.988 38.2041 15.108 38.2681 15.188C38.3401 15.26 38.4201 15.296 38.5081 15.296C38.6201 15.296 38.7481 15.236 38.8921 15.116C39.0361 14.988 39.1721 14.78 39.3001 14.492C39.4281 14.204 39.5121 13.816 39.5521 13.328C39.5681 13.176 39.5801 12.984 39.5881 12.752C39.5961 12.512 39.6041 12.292 39.6121 12.092C39.6201 11.884 39.6241 11.756 39.6241 11.708C39.6241 11.42 39.7281 11.22 39.9361 11.108C40.1521 10.988 40.3881 10.928 40.6441 10.928C40.8681 10.928 41.0801 10.972 41.2801 11.06C41.4801 11.148 41.6161 11.296 41.6881 11.504L41.7121 11.576C41.6401 11.64 41.5761 11.856 41.5201 12.224C41.4721 12.592 41.4121 13.084 41.3401 13.7C41.2921 14.1 41.2321 14.552 41.1601 15.056C41.0881 15.56 40.9881 16.068 40.8601 16.58C40.7401 17.084 40.5761 17.548 40.3681 17.972C40.1681 18.404 39.9161 18.748 39.6121 19.004C39.3081 19.268 38.9401 19.4 38.5081 19.4ZM38.2201 18.02C38.4681 18.02 38.6881 17.792 38.8801 17.336C39.0801 16.888 39.2361 16.248 39.3481 15.416C38.8361 16.072 38.4841 16.588 38.2921 16.964C38.1001 17.34 38.0041 17.612 38.0041 17.78C38.0041 17.94 38.0761 18.02 38.2201 18.02Z" fill="#2F5C0C"/>
<path d="M45.5173 17.048C45.2293 17.048 44.9733 16.924 44.7493 16.676C44.5253 16.42 44.4133 16.024 44.4133 15.488C44.4133 15.112 44.4613 14.736 44.5573 14.36C44.6613 13.984 44.7653 13.64 44.8693 13.328C45.0293 12.816 45.1693 12.344 45.2893 11.912C45.4093 11.48 45.4693 11.068 45.4693 10.676C45.4693 10.404 45.4373 10.216 45.3733 10.112C45.3173 10.008 45.2413 9.956 45.1453 9.956C45.0413 9.956 44.9253 10.012 44.7973 10.124C44.6773 10.236 44.5573 10.408 44.4373 10.64L44.3533 10.616C44.3693 10.152 44.4693 9.752 44.6533 9.416C44.8373 9.08 45.0693 8.82 45.3493 8.636C45.6293 8.452 45.9173 8.36 46.2133 8.36C46.5493 8.36 46.8373 8.496 47.0773 8.768C47.3173 9.032 47.4373 9.492 47.4373 10.148C47.4373 10.492 47.4013 10.852 47.3293 11.228C47.2653 11.604 47.1893 11.98 47.1013 12.356C47.3733 12.244 47.6613 12.164 47.9653 12.116C48.2693 12.068 48.5933 12.044 48.9373 12.044H49.2493C49.3533 11.644 49.4413 11.252 49.5133 10.868C49.5933 10.476 49.6333 10.112 49.6333 9.776C49.6333 9.656 49.6253 9.544 49.6093 9.44C49.6013 9.336 49.5893 9.236 49.5733 9.14V9.044C49.6933 8.828 49.8653 8.656 50.0893 8.528C50.3213 8.4 50.5533 8.336 50.7853 8.336C51.0493 8.336 51.2813 8.424 51.4813 8.6C51.6813 8.768 51.7813 9.04 51.7813 9.416C51.7813 9.696 51.7253 10.056 51.6133 10.496C51.5093 10.936 51.3893 11.388 51.2533 11.852C51.0933 12.42 50.9453 12.972 50.8093 13.508C50.6813 14.036 50.6173 14.484 50.6173 14.852C50.6173 15.1 50.6573 15.296 50.7373 15.44C50.8173 15.584 50.9453 15.656 51.1213 15.656C51.3613 15.656 51.5413 15.54 51.6613 15.308L51.7333 15.344C51.7253 15.68 51.6333 15.976 51.4573 16.232C51.2813 16.488 51.0613 16.688 50.7973 16.832C50.5413 16.976 50.2773 17.048 50.0053 17.048C49.7653 17.048 49.5373 16.988 49.3213 16.868C49.1133 16.74 48.9413 16.544 48.8053 16.28C48.6773 16.016 48.6133 15.672 48.6133 15.248C48.6133 14.968 48.6413 14.664 48.6973 14.336C48.7613 14 48.8333 13.66 48.9133 13.316C48.5453 13.292 48.1853 13.28 47.8333 13.28C47.6573 13.28 47.4893 13.284 47.3293 13.292C47.1693 13.3 47.0173 13.312 46.8733 13.328C46.8013 13.648 46.7373 13.964 46.6813 14.276C46.6333 14.58 46.6093 14.876 46.6093 15.164C46.6093 15.324 46.6173 15.484 46.6333 15.644C46.6573 15.796 46.6933 15.944 46.7413 16.088C46.6133 16.4 46.4333 16.64 46.2013 16.808C45.9773 16.968 45.7493 17.048 45.5173 17.048Z" fill="#2F5C0C"/>
<path d="M56.5757 17.06C56.2957 17.06 56.0517 16.968 55.8437 16.784C55.6357 16.6 55.5317 16.3 55.5317 15.884C55.5317 15.844 55.5317 15.804 55.5317 15.764C55.5317 15.724 55.5357 15.684 55.5437 15.644C55.3037 16.124 55.0317 16.48 54.7277 16.712C54.4317 16.936 54.1317 17.048 53.8277 17.048C53.5477 17.048 53.2837 16.952 53.0357 16.76C52.7877 16.56 52.5877 16.268 52.4357 15.884C52.2837 15.5 52.2077 15.036 52.2077 14.492C52.2077 13.932 52.2837 13.432 52.4357 12.992C52.5957 12.552 52.8037 12.18 53.0597 11.876C53.3157 11.572 53.5957 11.344 53.8997 11.192C54.2037 11.032 54.4997 10.952 54.7877 10.952C55.1077 10.952 55.3957 11.052 55.6517 11.252C55.9077 11.444 56.0837 11.752 56.1797 12.176C56.2037 12.04 56.2197 11.916 56.2277 11.804C56.2437 11.692 56.2517 11.616 56.2517 11.576C56.2597 11.36 56.3677 11.2 56.5757 11.096C56.7917 10.992 57.0277 10.94 57.2837 10.94C57.5077 10.94 57.7197 10.984 57.9197 11.072C58.1197 11.16 58.2557 11.308 58.3277 11.516L58.3517 11.588C58.2557 11.804 58.1597 12.064 58.0637 12.368C57.9677 12.672 57.8797 12.992 57.7997 13.328C57.7197 13.656 57.6557 13.98 57.6077 14.3C57.5597 14.612 57.5357 14.888 57.5357 15.128C57.5357 15.392 57.5637 15.576 57.6197 15.68C57.6757 15.776 57.7437 15.824 57.8237 15.824C57.9597 15.824 58.0837 15.728 58.1957 15.536L58.2917 15.584C58.2917 15.856 58.2037 16.104 58.0277 16.328C57.8517 16.552 57.6317 16.732 57.3677 16.868C57.1037 16.996 56.8397 17.06 56.5757 17.06ZM54.6197 15.536C54.8277 15.536 55.0557 15.352 55.3037 14.984C55.5597 14.608 55.7797 14.072 55.9637 13.376C55.9797 13.304 55.9957 13.236 56.0117 13.172C56.0277 13.1 56.0397 13.032 56.0477 12.968C55.9197 12.672 55.7837 12.464 55.6397 12.344C55.5037 12.216 55.3677 12.152 55.2317 12.152C55.0317 12.152 54.8437 12.26 54.6677 12.476C54.4997 12.684 54.3597 12.948 54.2477 13.268C54.1437 13.588 54.0917 13.908 54.0917 14.228C54.0917 14.668 54.1397 14.996 54.2357 15.212C54.3397 15.428 54.4677 15.536 54.6197 15.536Z" fill="#2F5C0C"/>
<path d="M62.1605 17.048C61.8405 17.048 61.5485 16.98 61.2845 16.844C61.0205 16.7 60.8045 16.492 60.6365 16.22C60.6285 16.372 60.5725 16.512 60.4685 16.64C60.3645 16.768 60.1685 16.832 59.8805 16.832C59.5605 16.832 59.3245 16.744 59.1725 16.568C59.0205 16.392 58.9445 16.16 58.9445 15.872C58.9445 15.696 58.9685 15.444 59.0165 15.116C59.0645 14.78 59.1205 14.404 59.1845 13.988C59.2565 13.572 59.3245 13.14 59.3885 12.692C59.4605 12.244 59.5205 11.808 59.5685 11.384C59.6165 10.96 59.6405 10.58 59.6405 10.244C59.6405 10.02 59.6285 9.824 59.6045 9.656C59.5805 9.488 59.5365 9.356 59.4725 9.26V9.188C59.6565 8.988 59.8485 8.84 60.0485 8.744C60.2485 8.64 60.4405 8.588 60.6245 8.588C60.8965 8.588 61.1285 8.696 61.3205 8.912C61.5125 9.128 61.6085 9.472 61.6085 9.944C61.6085 10.176 61.5845 10.504 61.5365 10.928C61.4885 11.344 61.4285 11.76 61.3565 12.176C61.6445 11.768 61.9485 11.456 62.2685 11.24C62.5965 11.024 62.9125 10.916 63.2165 10.916C63.6245 10.916 63.9725 11.112 64.2605 11.504C64.5485 11.888 64.6925 12.472 64.6925 13.256C64.6925 13.72 64.6365 14.18 64.5245 14.636C64.4205 15.084 64.2605 15.492 64.0445 15.86C63.8285 16.22 63.5605 16.508 63.2405 16.724C62.9285 16.94 62.5685 17.048 62.1605 17.048ZM61.5605 15.836C61.8165 15.836 62.0325 15.724 62.2085 15.5C62.3925 15.276 62.5285 14.992 62.6165 14.648C62.7125 14.296 62.7605 13.936 62.7605 13.568C62.7605 13.328 62.7405 13.1 62.7005 12.884C62.6605 12.66 62.6005 12.48 62.5205 12.344C62.4405 12.2 62.3365 12.128 62.2085 12.128C61.9845 12.128 61.7285 12.392 61.4405 12.92C61.1605 13.44 60.9405 14.18 60.7805 15.14C60.9245 15.604 61.1845 15.836 61.5605 15.836Z" fill="#2F5C0C"/>
<path d="M67.6121 10.58C67.2921 10.58 67.0281 10.484 66.8201 10.292C66.6201 10.092 66.5201 9.844 66.5201 9.548C66.5201 9.228 66.6401 8.952 66.8801 8.72C67.1201 8.488 67.4121 8.372 67.7561 8.372C68.0761 8.372 68.3361 8.472 68.5361 8.672C68.7441 8.872 68.8481 9.12 68.8481 9.416C68.8481 9.736 68.7281 10.012 68.4881 10.244C68.2481 10.468 67.9561 10.58 67.6121 10.58ZM66.7721 17.048C66.4601 17.048 66.1801 16.94 65.9321 16.724C65.6841 16.5 65.5601 16.144 65.5601 15.656C65.5601 15.376 65.5961 15.116 65.6681 14.876C65.7481 14.628 65.8361 14.388 65.9321 14.156C66.0361 13.924 66.1241 13.7 66.1961 13.484C66.2761 13.26 66.3161 13.04 66.3161 12.824C66.3161 12.632 66.2841 12.496 66.2201 12.416C66.1561 12.328 66.0801 12.284 65.9921 12.284C65.8561 12.284 65.7241 12.372 65.5961 12.548L65.5121 12.5C65.5441 12.18 65.6441 11.908 65.8121 11.684C65.9881 11.452 66.2001 11.272 66.4481 11.144C66.7041 11.016 66.9561 10.952 67.2041 10.952C67.5081 10.952 67.7721 11.052 67.9961 11.252C68.2201 11.444 68.3321 11.76 68.3321 12.2C68.3321 12.464 68.2921 12.744 68.2121 13.04C68.1401 13.328 68.0521 13.616 67.9481 13.904C67.8521 14.192 67.7641 14.46 67.6841 14.708C67.6121 14.956 67.5761 15.168 67.5761 15.344C67.5761 15.496 67.6041 15.604 67.6601 15.668C67.7241 15.732 67.7921 15.764 67.8641 15.764C67.9361 15.764 68.0041 15.744 68.0681 15.704C68.1401 15.656 68.1921 15.604 68.2241 15.548L68.3081 15.572C68.3081 15.868 68.2281 16.128 68.0681 16.352C67.9161 16.568 67.7241 16.74 67.4921 16.868C67.2601 16.988 67.0201 17.048 66.7721 17.048Z" fill="#2F5C0C"/>
<path d="M70.9624 17.048C70.7064 17.048 70.4624 16.992 70.2304 16.88C70.0064 16.76 69.8224 16.576 69.6784 16.328C69.5424 16.08 69.4744 15.764 69.4744 15.38C69.4744 15.172 69.4944 14.9 69.5344 14.564C69.5744 14.228 69.6264 13.86 69.6904 13.46C69.7624 13.06 69.8344 12.66 69.9064 12.26C69.7464 12.268 69.5904 12.284 69.4384 12.308C69.2944 12.332 69.1504 12.36 69.0064 12.392L68.9824 12.308C69.1424 12.116 69.3104 11.952 69.4864 11.816C69.6624 11.68 69.8464 11.568 70.0384 11.48C70.1424 10.952 70.2304 10.496 70.3024 10.112C70.3744 9.72 70.4104 9.488 70.4104 9.416C70.4104 9.28 70.5144 9.168 70.7224 9.08C70.9384 8.992 71.1784 8.948 71.4424 8.948C71.6744 8.948 71.8904 8.992 72.0904 9.08C72.2984 9.168 72.4384 9.316 72.5104 9.524C72.4624 9.572 72.3944 9.752 72.3064 10.064C72.2184 10.368 72.1264 10.74 72.0304 11.18C72.1824 11.188 72.3384 11.196 72.4984 11.204C72.6584 11.212 72.8224 11.224 72.9904 11.24C73.0064 11.288 73.0184 11.34 73.0264 11.396C73.0344 11.452 73.0384 11.512 73.0384 11.576C73.0384 11.696 73.0184 11.828 72.9784 11.972C72.9464 12.108 72.9064 12.232 72.8584 12.344C72.6664 12.328 72.4864 12.312 72.3184 12.296C72.1504 12.272 71.9864 12.256 71.8264 12.248C71.7624 12.592 71.7024 12.936 71.6464 13.28C71.5984 13.624 71.5584 13.936 71.5264 14.216C71.5024 14.496 71.4904 14.716 71.4904 14.876C71.4904 15.212 71.5504 15.436 71.6704 15.548C71.7984 15.66 71.9504 15.716 72.1264 15.716C72.2864 15.716 72.4304 15.684 72.5584 15.62C72.6864 15.556 72.7784 15.48 72.8344 15.392L72.9544 15.428C72.9064 15.756 72.7784 16.044 72.5704 16.292C72.3624 16.532 72.1144 16.72 71.8264 16.856C71.5384 16.984 71.2504 17.048 70.9624 17.048Z" fill="#2F5C0C"/>
<path d="M75.5289 17.108C75.0329 17.108 74.6209 17.04 74.2929 16.904C73.9649 16.768 73.7209 16.596 73.5609 16.388C73.4009 16.172 73.3209 15.956 73.3209 15.74C73.3209 15.436 73.4569 15.168 73.7289 14.936C74.0009 14.696 74.3689 14.576 74.8329 14.576C74.8329 14.984 74.8849 15.312 74.9889 15.56C75.0929 15.8 75.2249 15.972 75.3849 16.076C75.5529 16.18 75.7129 16.232 75.8649 16.232C76.0489 16.232 76.2009 16.18 76.3209 16.076C76.4489 15.964 76.5129 15.828 76.5129 15.668C76.5129 15.444 76.3969 15.248 76.1649 15.08C75.9329 14.912 75.6329 14.724 75.2649 14.516C75.0809 14.404 74.8809 14.276 74.6649 14.132C74.4489 13.98 74.2649 13.8 74.1129 13.592C73.9609 13.376 73.8849 13.12 73.8849 12.824C73.8849 12.512 73.9729 12.236 74.1489 11.996C74.3329 11.756 74.5729 11.556 74.8689 11.396C75.1649 11.228 75.4849 11.104 75.8289 11.024C76.1729 10.936 76.5089 10.892 76.8369 10.892C77.4529 10.892 77.9169 11.016 78.2289 11.264C78.5409 11.512 78.6969 11.776 78.6969 12.056C78.6969 12.296 78.5769 12.512 78.3369 12.704C78.0969 12.896 77.7289 12.992 77.2329 12.992C77.2409 12.584 77.1569 12.288 76.9809 12.104C76.8049 11.912 76.6169 11.816 76.4169 11.816C76.2729 11.816 76.1529 11.86 76.0569 11.948C75.9609 12.036 75.9129 12.164 75.9129 12.332C75.9129 12.524 75.9729 12.692 76.0929 12.836C76.2209 12.972 76.3769 13.096 76.5609 13.208C76.7529 13.312 76.9489 13.412 77.1489 13.508C77.4209 13.636 77.6769 13.772 77.9169 13.916C78.1569 14.06 78.3529 14.224 78.5049 14.408C78.6569 14.592 78.7329 14.816 78.7329 15.08C78.7329 15.44 78.5849 15.776 78.2889 16.088C78.0009 16.392 77.6129 16.64 77.1249 16.832C76.6369 17.016 76.1049 17.108 75.5289 17.108Z" fill="#2F5C0C"/>
<path d="M2 13.5C2 7.14873 7.14873 2 13.5 2H73.5C79.8513 2 85 7.14873 85 13.5C85 19.8513 79.8513 25 73.5 25H13.5C7.14873 25 2 19.8513 2 13.5Z" stroke="#2F5C0C" stroke-width="3" mask="url(#path-1-outside-1_6_7)"/>
<path d="M8.404 17.048C8.116 17.048 7.86 16.924 7.636 16.676C7.412 16.42 7.3 16.024 7.3 15.488C7.3 15.112 7.348 14.736 7.444 14.36C7.548 13.984 7.652 13.64 7.756 13.328C7.916 12.816 8.056 12.344 8.176 11.912C8.296 11.48 8.356 11.068 8.356 10.676C8.356 10.404 8.324 10.216 8.26 10.112C8.204 10.008 8.128 9.956 8.032 9.956C7.928 9.956 7.812 10.012 7.684 10.124C7.564 10.236 7.444 10.408 7.324 10.64L7.24 10.616C7.256 10.152 7.356 9.752 7.54 9.416C7.724 9.08 7.956 8.82 8.236 8.636C8.516 8.452 8.804 8.36 9.1 8.36C9.436 8.36 9.724 8.496 9.964 8.768C10.204 9.032 10.324 9.492 10.324 10.148C10.324 10.492 10.288 10.852 10.216 11.228C10.152 11.604 10.076 11.98 9.988 12.356C10.26 12.244 10.548 12.164 10.852 12.116C11.156 12.068 11.48 12.044 11.824 12.044H12.136C12.24 11.644 12.328 11.252 12.4 10.868C12.48 10.476 12.52 10.112 12.52 9.776C12.52 9.656 12.512 9.544 12.496 9.44C12.488 9.336 12.476 9.236 12.46 9.14V9.044C12.58 8.828 12.752 8.656 12.976 8.528C13.208 8.4 13.44 8.336 13.672 8.336C13.936 8.336 14.168 8.424 14.368 8.6C14.568 8.768 14.668 9.04 14.668 9.416C14.668 9.696 14.612 10.056 14.5 10.496C14.396 10.936 14.276 11.388 14.14 11.852C13.98 12.42 13.832 12.972 13.696 13.508C13.568 14.036 13.504 14.484 13.504 14.852C13.504 15.1 13.544 15.296 13.624 15.44C13.704 15.584 13.832 15.656 14.008 15.656C14.248 15.656 14.428 15.54 14.548 15.308L14.62 15.344C14.612 15.68 14.52 15.976 14.344 16.232C14.168 16.488 13.948 16.688 13.684 16.832C13.428 16.976 13.164 17.048 12.892 17.048C12.652 17.048 12.424 16.988 12.208 16.868C12 16.74 11.828 16.544 11.692 16.28C11.564 16.016 11.5 15.672 11.5 15.248C11.5 14.968 11.528 14.664 11.584 14.336C11.648 14 11.72 13.66 11.8 13.316C11.432 13.292 11.072 13.28 10.72 13.28C10.544 13.28 10.376 13.284 10.216 13.292C10.056 13.3 9.904 13.312 9.76 13.328C9.688 13.648 9.624 13.964 9.568 14.276C9.52 14.58 9.496 14.876 9.496 15.164C9.496 15.324 9.504 15.484 9.52 15.644C9.544 15.796 9.58 15.944 9.628 16.088C9.5 16.4 9.32 16.64 9.088 16.808C8.864 16.968 8.636 17.048 8.404 17.048Z" stroke="#2F5C0C" stroke-width="3" mask="url(#path-1-outside-1_6_7)"/>
<path d="M17.6275 17.084C17.0435 17.084 16.5595 16.968 16.1755 16.736C15.7915 16.496 15.5035 16.184 15.3115 15.8C15.1195 15.408 15.0235 14.988 15.0235 14.54C15.0235 14.116 15.1035 13.692 15.2635 13.268C15.4315 12.836 15.6715 12.444 15.9835 12.092C16.3035 11.74 16.6875 11.456 17.1355 11.24C17.5915 11.024 18.1035 10.916 18.6715 10.916C19.3755 10.916 19.8875 11.076 20.2075 11.396C20.5355 11.708 20.6995 12.088 20.6995 12.536C20.6995 12.92 20.5955 13.276 20.3875 13.604C20.1875 13.924 19.9195 14.184 19.5835 14.384C19.2475 14.576 18.8795 14.672 18.4795 14.672C18.2715 14.672 18.0595 14.64 17.8435 14.576C17.6275 14.512 17.4155 14.412 17.2075 14.276C17.2475 14.772 17.3915 15.132 17.6395 15.356C17.8875 15.58 18.1835 15.692 18.5275 15.692C18.7675 15.692 19.0075 15.648 19.2475 15.56C19.4875 15.464 19.7075 15.344 19.9075 15.2C20.1155 15.048 20.2755 14.888 20.3875 14.72L20.4715 14.78C20.4715 15.196 20.3835 15.552 20.2075 15.848C20.0395 16.136 19.8155 16.372 19.5355 16.556C19.2555 16.74 18.9475 16.876 18.6115 16.964C18.2835 17.044 17.9555 17.084 17.6275 17.084ZM17.9035 13.844C18.1595 13.844 18.3675 13.772 18.5275 13.628C18.6875 13.476 18.8075 13.3 18.8875 13.1C18.9675 12.9 19.0075 12.724 19.0075 12.572C19.0075 12.388 18.9555 12.236 18.8515 12.116C18.7475 11.988 18.6035 11.924 18.4195 11.924C18.2755 11.924 18.1155 11.976 17.9395 12.08C17.7715 12.184 17.6195 12.364 17.4835 12.62C17.3475 12.868 17.2595 13.216 17.2195 13.664C17.4755 13.784 17.7035 13.844 17.9035 13.844Z" stroke="#2F5C0C" stroke-width="3" mask="url(#path-1-outside-1_6_7)"/>
<path d="M22.6264 17.048C22.4104 17.048 22.1984 16.996 21.9904 16.892C21.7904 16.78 21.6264 16.604 21.4984 16.364C21.3704 16.124 21.3064 15.816 21.3064 15.44C21.3064 15.104 21.3504 14.712 21.4384 14.264C21.5344 13.808 21.6384 13.336 21.7504 12.848C21.8704 12.36 21.9744 11.884 22.0624 11.42C22.1504 10.956 22.1904 10.544 22.1824 10.184C22.1824 9.84 22.1424 9.596 22.0624 9.452L22.0504 9.416C22.1384 9.16 22.2944 8.96 22.5184 8.816C22.7424 8.672 22.9784 8.6 23.2264 8.6C23.5064 8.6 23.7544 8.708 23.9704 8.924C24.1944 9.132 24.3064 9.484 24.3064 9.98C24.3064 10.244 24.2744 10.56 24.2104 10.928C24.1464 11.288 24.0704 11.676 23.9824 12.092C23.8944 12.5 23.8024 12.904 23.7064 13.304C23.6184 13.704 23.5424 14.072 23.4784 14.408C23.4144 14.744 23.3824 15.02 23.3824 15.236C23.3824 15.46 23.4144 15.616 23.4784 15.704C23.5424 15.784 23.6144 15.824 23.6944 15.824C23.7824 15.824 23.8664 15.792 23.9464 15.728C24.0264 15.656 24.0784 15.592 24.1024 15.536L24.1984 15.56C24.1904 15.848 24.1064 16.104 23.9464 16.328C23.7944 16.552 23.5984 16.728 23.3584 16.856C23.1264 16.984 22.8824 17.048 22.6264 17.048Z" stroke="#2F5C0C" stroke-width="3" mask="url(#path-1-outside-1_6_7)"/>
<path d="M26.6304 17.048C26.3744 17.048 26.1304 16.992 25.8984 16.88C25.6744 16.76 25.4904 16.576 25.3464 16.328C25.2104 16.08 25.1424 15.764 25.1424 15.38C25.1424 15.172 25.1624 14.9 25.2024 14.564C25.2424 14.228 25.2944 13.86 25.3584 13.46C25.4304 13.06 25.5024 12.66 25.5744 12.26C25.4144 12.268 25.2584 12.284 25.1064 12.308C24.9624 12.332 24.8184 12.36 24.6744 12.392L24.6504 12.308C24.8104 12.116 24.9784 11.952 25.1544 11.816C25.3304 11.68 25.5144 11.568 25.7064 11.48C25.8104 10.952 25.8984 10.496 25.9704 10.112C26.0424 9.72 26.0784 9.488 26.0784 9.416C26.0784 9.28 26.1824 9.168 26.3904 9.08C26.6064 8.992 26.8464 8.948 27.1104 8.948C27.3424 8.948 27.5584 8.992 27.7584 9.08C27.9664 9.168 28.1064 9.316 28.1784 9.524C28.1304 9.572 28.0624 9.752 27.9744 10.064C27.8864 10.368 27.7944 10.74 27.6984 11.18C27.8504 11.188 28.0064 11.196 28.1664 11.204C28.3264 11.212 28.4904 11.224 28.6584 11.24C28.6744 11.288 28.6864 11.34 28.6944 11.396C28.7024 11.452 28.7064 11.512 28.7064 11.576C28.7064 11.696 28.6864 11.828 28.6464 11.972C28.6144 12.108 28.5744 12.232 28.5264 12.344C28.3344 12.328 28.1544 12.312 27.9864 12.296C27.8184 12.272 27.6544 12.256 27.4944 12.248C27.4304 12.592 27.3704 12.936 27.3144 13.28C27.2664 13.624 27.2264 13.936 27.1944 14.216C27.1704 14.496 27.1584 14.716 27.1584 14.876C27.1584 15.212 27.2184 15.436 27.3384 15.548C27.4664 15.66 27.6184 15.716 27.7944 15.716C27.9544 15.716 28.0984 15.684 28.2264 15.62C28.3544 15.556 28.4464 15.48 28.5024 15.392L28.6224 15.428C28.5744 15.756 28.4464 16.044 28.2384 16.292C28.0304 16.532 27.7824 16.72 27.4944 16.856C27.2064 16.984 26.9184 17.048 26.6304 17.048Z" stroke="#2F5C0C" stroke-width="3" mask="url(#path-1-outside-1_6_7)"/>
<path d="M30.3569 17.048C30.0129 17.048 29.7369 16.932 29.5289 16.7C29.3209 16.468 29.2169 16.152 29.2169 15.752C29.2169 15.536 29.2449 15.256 29.3009 14.912C29.3569 14.56 29.4249 14.176 29.5049 13.76C29.5929 13.336 29.6769 12.908 29.7569 12.476C29.8369 12.036 29.9049 11.612 29.9609 11.204C30.0169 10.796 30.0449 10.436 30.0449 10.124C30.0449 9.732 29.9929 9.448 29.8889 9.272V9.2C30.0649 9 30.2569 8.852 30.4649 8.756C30.6729 8.66 30.8769 8.612 31.0769 8.612C31.3809 8.612 31.6409 8.72 31.8569 8.936C32.0729 9.152 32.1809 9.476 32.1809 9.908C32.1809 10.14 32.1489 10.424 32.0849 10.76C32.0209 11.096 31.9449 11.448 31.8569 11.816C31.7689 12.184 31.6809 12.528 31.5929 12.848C31.7449 12.552 31.9449 12.26 32.1929 11.972C32.4489 11.676 32.7369 11.432 33.0569 11.24C33.3849 11.048 33.7249 10.952 34.0769 10.952C34.4769 10.952 34.7449 11.076 34.8809 11.324C35.0249 11.572 35.0969 11.88 35.0969 12.248C35.0969 12.584 35.0609 12.944 34.9889 13.328C34.9169 13.704 34.8449 14.068 34.7729 14.42C34.7009 14.764 34.6649 15.052 34.6649 15.284C34.6649 15.62 34.7649 15.788 34.9649 15.788C35.0529 15.788 35.1289 15.764 35.1929 15.716C35.2649 15.66 35.3169 15.6 35.3489 15.536L35.4329 15.596C35.4329 15.908 35.3569 16.172 35.2049 16.388C35.0529 16.604 34.8569 16.768 34.6169 16.88C34.3849 16.992 34.1449 17.048 33.8969 17.048C33.5689 17.048 33.2729 16.94 33.0089 16.724C32.7449 16.5 32.6129 16.14 32.6129 15.644C32.6129 15.364 32.6489 15.06 32.7209 14.732C32.8009 14.404 32.8769 14.088 32.9489 13.784C33.0209 13.472 33.0569 13.212 33.0569 13.004C33.0569 12.732 32.9609 12.596 32.7689 12.596C32.5929 12.596 32.4009 12.684 32.1929 12.86C31.9849 13.036 31.8009 13.256 31.6409 13.52C31.4889 13.784 31.3889 14.044 31.3409 14.3C31.3249 14.364 31.3169 14.44 31.3169 14.528C31.3169 14.728 31.3449 14.92 31.4009 15.104C31.4649 15.288 31.4969 15.504 31.4969 15.752C31.4969 16.12 31.4009 16.428 31.2089 16.676C31.0169 16.924 30.7329 17.048 30.3569 17.048Z" stroke="#2F5C0C" stroke-width="3" mask="url(#path-1-outside-1_6_7)"/>
<path d="M38.5081 19.4C38.1081 19.4 37.7841 19.276 37.5361 19.028C37.2961 18.788 37.1761 18.46 37.1761 18.044C37.1761 17.828 37.2121 17.588 37.2841 17.324C37.3641 17.068 37.4921 16.796 37.6681 16.508C37.2761 16.484 36.9521 16.352 36.6961 16.112C36.4481 15.872 36.3241 15.508 36.3241 15.02C36.3241 14.732 36.3601 14.424 36.4321 14.096C36.5121 13.76 36.5881 13.448 36.6601 13.16C36.7321 12.864 36.7681 12.636 36.7681 12.476C36.7681 12.356 36.7441 12.272 36.6961 12.224C36.6481 12.168 36.5921 12.14 36.5281 12.14C36.4641 12.14 36.3921 12.168 36.3121 12.224C36.2401 12.272 36.1841 12.348 36.1441 12.452L35.9401 12.236C35.9881 11.988 36.0921 11.768 36.2521 11.576C36.4121 11.384 36.6081 11.232 36.8401 11.12C37.0721 11.008 37.3121 10.952 37.5601 10.952C37.8401 10.952 38.0841 11.044 38.2921 11.228C38.5001 11.404 38.6041 11.728 38.6041 12.2C38.6041 12.496 38.5681 12.816 38.4961 13.16C38.4241 13.496 38.3521 13.816 38.2801 14.12C38.2081 14.416 38.1721 14.652 38.1721 14.828C38.1721 14.988 38.2041 15.108 38.2681 15.188C38.3401 15.26 38.4201 15.296 38.5081 15.296C38.6201 15.296 38.7481 15.236 38.8921 15.116C39.0361 14.988 39.1721 14.78 39.3001 14.492C39.4281 14.204 39.5121 13.816 39.5521 13.328C39.5681 13.176 39.5801 12.984 39.5881 12.752C39.5961 12.512 39.6041 12.292 39.6121 12.092C39.6201 11.884 39.6241 11.756 39.6241 11.708C39.6241 11.42 39.7281 11.22 39.9361 11.108C40.1521 10.988 40.3881 10.928 40.6441 10.928C40.8681 10.928 41.0801 10.972 41.2801 11.06C41.4801 11.148 41.6161 11.296 41.6881 11.504L41.7121 11.576C41.6401 11.64 41.5761 11.856 41.5201 12.224C41.4721 12.592 41.4121 13.084 41.3401 13.7C41.2921 14.1 41.2321 14.552 41.1601 15.056C41.0881 15.56 40.9881 16.068 40.8601 16.58C40.7401 17.084 40.5761 17.548 40.3681 17.972C40.1681 18.404 39.9161 18.748 39.6121 19.004C39.3081 19.268 38.9401 19.4 38.5081 19.4ZM38.2201 18.02C38.4681 18.02 38.6881 17.792 38.8801 17.336C39.0801 16.888 39.2361 16.248 39.3481 15.416C38.8361 16.072 38.4841 16.588 38.2921 16.964C38.1001 17.34 38.0041 17.612 38.0041 17.78C38.0041 17.94 38.0761 18.02 38.2201 18.02Z" stroke="#2F5C0C" stroke-width="3" mask="url(#path-1-outside-1_6_7)"/>
<path d="M45.5173 17.048C45.2293 17.048 44.9733 16.924 44.7493 16.676C44.5253 16.42 44.4133 16.024 44.4133 15.488C44.4133 15.112 44.4613 14.736 44.5573 14.36C44.6613 13.984 44.7653 13.64 44.8693 13.328C45.0293 12.816 45.1693 12.344 45.2893 11.912C45.4093 11.48 45.4693 11.068 45.4693 10.676C45.4693 10.404 45.4373 10.216 45.3733 10.112C45.3173 10.008 45.2413 9.956 45.1453 9.956C45.0413 9.956 44.9253 10.012 44.7973 10.124C44.6773 10.236 44.5573 10.408 44.4373 10.64L44.3533 10.616C44.3693 10.152 44.4693 9.752 44.6533 9.416C44.8373 9.08 45.0693 8.82 45.3493 8.636C45.6293 8.452 45.9173 8.36 46.2133 8.36C46.5493 8.36 46.8373 8.496 47.0773 8.768C47.3173 9.032 47.4373 9.492 47.4373 10.148C47.4373 10.492 47.4013 10.852 47.3293 11.228C47.2653 11.604 47.1893 11.98 47.1013 12.356C47.3733 12.244 47.6613 12.164 47.9653 12.116C48.2693 12.068 48.5933 12.044 48.9373 12.044H49.2493C49.3533 11.644 49.4413 11.252 49.5133 10.868C49.5933 10.476 49.6333 10.112 49.6333 9.776C49.6333 9.656 49.6253 9.544 49.6093 9.44C49.6013 9.336 49.5893 9.236 49.5733 9.14V9.044C49.6933 8.828 49.8653 8.656 50.0893 8.528C50.3213 8.4 50.5533 8.336 50.7853 8.336C51.0493 8.336 51.2813 8.424 51.4813 8.6C51.6813 8.768 51.7813 9.04 51.7813 9.416C51.7813 9.696 51.7253 10.056 51.6133 10.496C51.5093 10.936 51.3893 11.388 51.2533 11.852C51.0933 12.42 50.9453 12.972 50.8093 13.508C50.6813 14.036 50.6173 14.484 50.6173 14.852C50.6173 15.1 50.6573 15.296 50.7373 15.44C50.8173 15.584 50.9453 15.656 51.1213 15.656C51.3613 15.656 51.5413 15.54 51.6613 15.308L51.7333 15.344C51.7253 15.68 51.6333 15.976 51.4573 16.232C51.2813 16.488 51.0613 16.688 50.7973 16.832C50.5413 16.976 50.2773 17.048 50.0053 17.048C49.7653 17.048 49.5373 16.988 49.3213 16.868C49.1133 16.74 48.9413 16.544 48.8053 16.28C48.6773 16.016 48.6133 15.672 48.6133 15.248C48.6133 14.968 48.6413 14.664 48.6973 14.336C48.7613 14 48.8333 13.66 48.9133 13.316C48.5453 13.292 48.1853 13.28 47.8333 13.28C47.6573 13.28 47.4893 13.284 47.3293 13.292C47.1693 13.3 47.0173 13.312 46.8733 13.328C46.8013 13.648 46.7373 13.964 46.6813 14.276C46.6333 14.58 46.6093 14.876 46.6093 15.164C46.6093 15.324 46.6173 15.484 46.6333 15.644C46.6573 15.796 46.6933 15.944 46.7413 16.088C46.6133 16.4 46.4333 16.64 46.2013 16.808C45.9773 16.968 45.7493 17.048 45.5173 17.048Z" stroke="#2F5C0C" stroke-width="3" mask="url(#path-1-outside-1_6_7)"/>
<path d="M56.5757 17.06C56.2957 17.06 56.0517 16.968 55.8437 16.784C55.6357 16.6 55.5317 16.3 55.5317 15.884C55.5317 15.844 55.5317 15.804 55.5317 15.764C55.5317 15.724 55.5357 15.684 55.5437 15.644C55.3037 16.124 55.0317 16.48 54.7277 16.712C54.4317 16.936 54.1317 17.048 53.8277 17.048C53.5477 17.048 53.2837 16.952 53.0357 16.76C52.7877 16.56 52.5877 16.268 52.4357 15.884C52.2837 15.5 52.2077 15.036 52.2077 14.492C52.2077 13.932 52.2837 13.432 52.4357 12.992C52.5957 12.552 52.8037 12.18 53.0597 11.876C53.3157 11.572 53.5957 11.344 53.8997 11.192C54.2037 11.032 54.4997 10.952 54.7877 10.952C55.1077 10.952 55.3957 11.052 55.6517 11.252C55.9077 11.444 56.0837 11.752 56.1797 12.176C56.2037 12.04 56.2197 11.916 56.2277 11.804C56.2437 11.692 56.2517 11.616 56.2517 11.576C56.2597 11.36 56.3677 11.2 56.5757 11.096C56.7917 10.992 57.0277 10.94 57.2837 10.94C57.5077 10.94 57.7197 10.984 57.9197 11.072C58.1197 11.16 58.2557 11.308 58.3277 11.516L58.3517 11.588C58.2557 11.804 58.1597 12.064 58.0637 12.368C57.9677 12.672 57.8797 12.992 57.7997 13.328C57.7197 13.656 57.6557 13.98 57.6077 14.3C57.5597 14.612 57.5357 14.888 57.5357 15.128C57.5357 15.392 57.5637 15.576 57.6197 15.68C57.6757 15.776 57.7437 15.824 57.8237 15.824C57.9597 15.824 58.0837 15.728 58.1957 15.536L58.2917 15.584C58.2917 15.856 58.2037 16.104 58.0277 16.328C57.8517 16.552 57.6317 16.732 57.3677 16.868C57.1037 16.996 56.8397 17.06 56.5757 17.06ZM54.6197 15.536C54.8277 15.536 55.0557 15.352 55.3037 14.984C55.5597 14.608 55.7797 14.072 55.9637 13.376C55.9797 13.304 55.9957 13.236 56.0117 13.172C56.0277 13.1 56.0397 13.032 56.0477 12.968C55.9197 12.672 55.7837 12.464 55.6397 12.344C55.5037 12.216 55.3677 12.152 55.2317 12.152C55.0317 12.152 54.8437 12.26 54.6677 12.476C54.4997 12.684 54.3597 12.948 54.2477 13.268C54.1437 13.588 54.0917 13.908 54.0917 14.228C54.0917 14.668 54.1397 14.996 54.2357 15.212C54.3397 15.428 54.4677 15.536 54.6197 15.536Z" stroke="#2F5C0C" stroke-width="3" mask="url(#path-1-outside-1_6_7)"/>
<path d="M62.1605 17.048C61.8405 17.048 61.5485 16.98 61.2845 16.844C61.0205 16.7 60.8045 16.492 60.6365 16.22C60.6285 16.372 60.5725 16.512 60.4685 16.64C60.3645 16.768 60.1685 16.832 59.8805 16.832C59.5605 16.832 59.3245 16.744 59.1725 16.568C59.0205 16.392 58.9445 16.16 58.9445 15.872C58.9445 15.696 58.9685 15.444 59.0165 15.116C59.0645 14.78 59.1205 14.404 59.1845 13.988C59.2565 13.572 59.3245 13.14 59.3885 12.692C59.4605 12.244 59.5205 11.808 59.5685 11.384C59.6165 10.96 59.6405 10.58 59.6405 10.244C59.6405 10.02 59.6285 9.824 59.6045 9.656C59.5805 9.488 59.5365 9.356 59.4725 9.26V9.188C59.6565 8.988 59.8485 8.84 60.0485 8.744C60.2485 8.64 60.4405 8.588 60.6245 8.588C60.8965 8.588 61.1285 8.696 61.3205 8.912C61.5125 9.128 61.6085 9.472 61.6085 9.944C61.6085 10.176 61.5845 10.504 61.5365 10.928C61.4885 11.344 61.4285 11.76 61.3565 12.176C61.6445 11.768 61.9485 11.456 62.2685 11.24C62.5965 11.024 62.9125 10.916 63.2165 10.916C63.6245 10.916 63.9725 11.112 64.2605 11.504C64.5485 11.888 64.6925 12.472 64.6925 13.256C64.6925 13.72 64.6365 14.18 64.5245 14.636C64.4205 15.084 64.2605 15.492 64.0445 15.86C63.8285 16.22 63.5605 16.508 63.2405 16.724C62.9285 16.94 62.5685 17.048 62.1605 17.048ZM61.5605 15.836C61.8165 15.836 62.0325 15.724 62.2085 15.5C62.3925 15.276 62.5285 14.992 62.6165 14.648C62.7125 14.296 62.7605 13.936 62.7605 13.568C62.7605 13.328 62.7405 13.1 62.7005 12.884C62.6605 12.66 62.6005 12.48 62.5205 12.344C62.4405 12.2 62.3365 12.128 62.2085 12.128C61.9845 12.128 61.7285 12.392 61.4405 12.92C61.1605 13.44 60.9405 14.18 60.7805 15.14C60.9245 15.604 61.1845 15.836 61.5605 15.836Z" stroke="#2F5C0C" stroke-width="3" mask="url(#path-1-outside-1_6_7)"/>
<path d="M67.6121 10.58C67.2921 10.58 67.0281 10.484 66.8201 10.292C66.6201 10.092 66.5201 9.844 66.5201 9.548C66.5201 9.228 66.6401 8.952 66.8801 8.72C67.1201 8.488 67.4121 8.372 67.7561 8.372C68.0761 8.372 68.3361 8.472 68.5361 8.672C68.7441 8.872 68.8481 9.12 68.8481 9.416C68.8481 9.736 68.7281 10.012 68.4881 10.244C68.2481 10.468 67.9561 10.58 67.6121 10.58ZM66.7721 17.048C66.4601 17.048 66.1801 16.94 65.9321 16.724C65.6841 16.5 65.5601 16.144 65.5601 15.656C65.5601 15.376 65.5961 15.116 65.6681 14.876C65.7481 14.628 65.8361 14.388 65.9321 14.156C66.0361 13.924 66.1241 13.7 66.1961 13.484C66.2761 13.26 66.3161 13.04 66.3161 12.824C66.3161 12.632 66.2841 12.496 66.2201 12.416C66.1561 12.328 66.0801 12.284 65.9921 12.284C65.8561 12.284 65.7241 12.372 65.5961 12.548L65.5121 12.5C65.5441 12.18 65.6441 11.908 65.8121 11.684C65.9881 11.452 66.2001 11.272 66.4481 11.144C66.7041 11.016 66.9561 10.952 67.2041 10.952C67.5081 10.952 67.7721 11.052 67.9961 11.252C68.2201 11.444 68.3321 11.76 68.3321 12.2C68.3321 12.464 68.2921 12.744 68.2121 13.04C68.1401 13.328 68.0521 13.616 67.9481 13.904C67.8521 14.192 67.7641 14.46 67.6841 14.708C67.6121 14.956 67.5761 15.168 67.5761 15.344C67.5761 15.496 67.6041 15.604 67.6601 15.668C67.7241 15.732 67.7921 15.764 67.8641 15.764C67.9361 15.764 68.0041 15.744 68.0681 15.704C68.1401 15.656 68.1921 15.604 68.2241 15.548L68.3081 15.572C68.3081 15.868 68.2281 16.128 68.0681 16.352C67.9161 16.568 67.7241 16.74 67.4921 16.868C67.2601 16.988 67.0201 17.048 66.7721 17.048Z" stroke="#2F5C0C" stroke-width="3" mask="url(#path-1-outside-1_6_7)"/>
<path d="M70.9624 17.048C70.7064 17.048 70.4624 16.992 70.2304 16.88C70.0064 16.76 69.8224 16.576 69.6784 16.328C69.5424 16.08 69.4744 15.764 69.4744 15.38C69.4744 15.172 69.4944 14.9 69.5344 14.564C69.5744 14.228 69.6264 13.86 69.6904 13.46C69.7624 13.06 69.8344 12.66 69.9064 12.26C69.7464 12.268 69.5904 12.284 69.4384 12.308C69.2944 12.332 69.1504 12.36 69.0064 12.392L68.9824 12.308C69.1424 12.116 69.3104 11.952 69.4864 11.816C69.6624 11.68 69.8464 11.568 70.0384 11.48C70.1424 10.952 70.2304 10.496 70.3024 10.112C70.3744 9.72 70.4104 9.488 70.4104 9.416C70.4104 9.28 70.5144 9.168 70.7224 9.08C70.9384 8.992 71.1784 8.948 71.4424 8.948C71.6744 8.948 71.8904 8.992 72.0904 9.08C72.2984 9.168 72.4384 9.316 72.5104 9.524C72.4624 9.572 72.3944 9.752 72.3064 10.064C72.2184 10.368 72.1264 10.74 72.0304 11.18C72.1824 11.188 72.3384 11.196 72.4984 11.204C72.6584 11.212 72.8224 11.224 72.9904 11.24C73.0064 11.288 73.0184 11.34 73.0264 11.396C73.0344 11.452 73.0384 11.512 73.0384 11.576C73.0384 11.696 73.0184 11.828 72.9784 11.972C72.9464 12.108 72.9064 12.232 72.8584 12.344C72.6664 12.328 72.4864 12.312 72.3184 12.296C72.1504 12.272 71.9864 12.256 71.8264 12.248C71.7624 12.592 71.7024 12.936 71.6464 13.28C71.5984 13.624 71.5584 13.936 71.5264 14.216C71.5024 14.496 71.4904 14.716 71.4904 14.876C71.4904 15.212 71.5504 15.436 71.6704 15.548C71.7984 15.66 71.9504 15.716 72.1264 15.716C72.2864 15.716 72.4304 15.684 72.5584 15.62C72.6864 15.556 72.7784 15.48 72.8344 15.392L72.9544 15.428C72.9064 15.756 72.7784 16.044 72.5704 16.292C72.3624 16.532 72.1144 16.72 71.8264 16.856C71.5384 16.984 71.2504 17.048 70.9624 17.048Z" stroke="#2F5C0C" stroke-width="3" mask="url(#path-1-outside-1_6_7)"/>
<path d="M75.5289 17.108C75.0329 17.108 74.6209 17.04 74.2929 16.904C73.9649 16.768 73.7209 16.596 73.5609 16.388C73.4009 16.172 73.3209 15.956 73.3209 15.74C73.3209 15.436 73.4569 15.168 73.7289 14.936C74.0009 14.696 74.3689 14.576 74.8329 14.576C74.8329 14.984 74.8849 15.312 74.9889 15.56C75.0929 15.8 75.2249 15.972 75.3849 16.076C75.5529 16.18 75.7129 16.232 75.8649 16.232C76.0489 16.232 76.2009 16.18 76.3209 16.076C76.4489 15.964 76.5129 15.828 76.5129 15.668C76.5129 15.444 76.3969 15.248 76.1649 15.08C75.9329 14.912 75.6329 14.724 75.2649 14.516C75.0809 14.404 74.8809 14.276 74.6649 14.132C74.4489 13.98 74.2649 13.8 74.1129 13.592C73.9609 13.376 73.8849 13.12 73.8849 12.824C73.8849 12.512 73.9729 12.236 74.1489 11.996C74.3329 11.756 74.5729 11.556 74.8689 11.396C75.1649 11.228 75.4849 11.104 75.8289 11.024C76.1729 10.936 76.5089 10.892 76.8369 10.892C77.4529 10.892 77.9169 11.016 78.2289 11.264C78.5409 11.512 78.6969 11.776 78.6969 12.056C78.6969 12.296 78.5769 12.512 78.3369 12.704C78.0969 12.896 77.7289 12.992 77.2329 12.992C77.2409 12.584 77.1569 12.288 76.9809 12.104C76.8049 11.912 76.6169 11.816 76.4169 11.816C76.2729 11.816 76.1529 11.86 76.0569 11.948C75.9609 12.036 75.9129 12.164 75.9129 12.332C75.9129 12.524 75.9729 12.692 76.0929 12.836C76.2209 12.972 76.3769 13.096 76.5609 13.208C76.7529 13.312 76.9489 13.412 77.1489 13.508C77.4209 13.636 77.6769 13.772 77.9169 13.916C78.1569 14.06 78.3529 14.224 78.5049 14.408C78.6569 14.592 78.7329 14.816 78.7329 15.08C78.7329 15.44 78.5849 15.776 78.2889 16.088C78.0009 16.392 77.6129 16.64 77.1249 16.832C76.6369 17.016 76.1049 17.108 75.5289 17.108Z" stroke="#2F5C0C" stroke-width="3" mask="url(#path-1-outside-1_6_7)"/>
</svg>
