<svg width="111" height="30" viewBox="0 0 111 30" fill="none" xmlns="http://www.w3.org/2000/svg">
<mask id="path-1-outside-1_12_29" maskUnits="userSpaceOnUse" x="0" y="0" width="111" height="30" fill="black">
<rect fill="white" width="111" height="30"/>
<path d="M2 15C2 7.8203 7.8203 2 15 2H96C103.18 2 109 7.8203 109 15C109 22.1797 103.18 28 96 28H15C7.8203 28 2 22.1797 2 15Z"/>
<path d="M15.756 10.6H17.7V19H15.756V10.6ZM11.94 19H9.996V10.6H11.94V19ZM15.9 15.556H11.796V13.912H15.9V15.556Z"/>
<path d="M22.7594 19.096C22.0234 19.096 21.3754 18.952 20.8154 18.664C20.2634 18.376 19.8354 17.984 19.5314 17.488C19.2274 16.984 19.0754 16.412 19.0754 15.772C19.0754 15.124 19.2234 14.552 19.5194 14.056C19.8234 13.552 20.2354 13.16 20.7554 12.88C21.2754 12.592 21.8634 12.448 22.5194 12.448C23.1514 12.448 23.7194 12.584 24.2234 12.856C24.7354 13.12 25.1394 13.504 25.4354 14.008C25.7314 14.504 25.8794 15.1 25.8794 15.796C25.8794 15.868 25.8754 15.952 25.8674 16.048C25.8594 16.136 25.8514 16.22 25.8434 16.3H20.5994V15.208H24.8594L24.1394 15.532C24.1394 15.196 24.0714 14.904 23.9354 14.656C23.7994 14.408 23.6114 14.216 23.3714 14.08C23.1314 13.936 22.8514 13.864 22.5314 13.864C22.2114 13.864 21.9274 13.936 21.6794 14.08C21.4394 14.216 21.2514 14.412 21.1154 14.668C20.9794 14.916 20.9114 15.212 20.9114 15.556V15.844C20.9114 16.196 20.9874 16.508 21.1394 16.78C21.2994 17.044 21.5194 17.248 21.7994 17.392C22.0874 17.528 22.4234 17.596 22.8074 17.596C23.1514 17.596 23.4514 17.544 23.7074 17.44C23.9714 17.336 24.2114 17.18 24.4274 16.972L25.4234 18.052C25.1274 18.388 24.7554 18.648 24.3074 18.832C23.8594 19.008 23.3434 19.096 22.7594 19.096Z"/>
<path d="M30.9099 19V17.74L30.7899 17.464V15.208C30.7899 14.808 30.6659 14.496 30.4179 14.272C30.1779 14.048 29.8059 13.936 29.3019 13.936C28.9579 13.936 28.6179 13.992 28.2819 14.104C27.9539 14.208 27.6739 14.352 27.4419 14.536L26.7699 13.228C27.1219 12.98 27.5459 12.788 28.0419 12.652C28.5379 12.516 29.0419 12.448 29.5539 12.448C30.5379 12.448 31.3019 12.68 31.8459 13.144C32.3899 13.608 32.6619 14.332 32.6619 15.316V19H30.9099ZM28.9419 19.096C28.4379 19.096 28.0059 19.012 27.6459 18.844C27.2859 18.668 27.0099 18.432 26.8179 18.136C26.6259 17.84 26.5299 17.508 26.5299 17.14C26.5299 16.756 26.6219 16.42 26.8059 16.132C26.9979 15.844 27.2979 15.62 27.7059 15.46C28.1139 15.292 28.6459 15.208 29.3019 15.208H31.0179V16.3H29.5059C29.0659 16.3 28.7619 16.372 28.5939 16.516C28.4339 16.66 28.3539 16.84 28.3539 17.056C28.3539 17.296 28.4459 17.488 28.6299 17.632C28.8219 17.768 29.0819 17.836 29.4099 17.836C29.7219 17.836 30.0019 17.764 30.2499 17.62C30.4979 17.468 30.6779 17.248 30.7899 16.96L31.0779 17.824C30.9419 18.24 30.6939 18.556 30.3339 18.772C29.9739 18.988 29.5099 19.096 28.9419 19.096Z"/>
<path d="M34.3562 19V10.096H36.2282V19H34.3562Z"/>
<path d="M41.086 19.096C40.326 19.096 39.734 18.904 39.31 18.52C38.886 18.128 38.674 17.548 38.674 16.78V11.116H40.546V16.756C40.546 17.028 40.618 17.24 40.762 17.392C40.906 17.536 41.102 17.608 41.35 17.608C41.646 17.608 41.898 17.528 42.106 17.368L42.61 18.688C42.418 18.824 42.186 18.928 41.914 19C41.65 19.064 41.374 19.096 41.086 19.096ZM37.678 14.128V12.688H42.154V14.128H37.678Z"/>
<path d="M47.5849 12.448C48.0969 12.448 48.5529 12.552 48.9529 12.76C49.3609 12.96 49.6809 13.272 49.9129 13.696C50.1449 14.112 50.2609 14.648 50.2609 15.304V19H48.3889V15.592C48.3889 15.072 48.2729 14.688 48.0409 14.44C47.8169 14.192 47.4969 14.068 47.0809 14.068C46.7849 14.068 46.5169 14.132 46.2769 14.26C46.0449 14.38 45.8609 14.568 45.7249 14.824C45.5969 15.08 45.5329 15.408 45.5329 15.808V19H43.6609V10.096H45.5329V14.332L45.1129 13.792C45.3449 13.36 45.6769 13.028 46.1089 12.796C46.5409 12.564 47.0329 12.448 47.5849 12.448Z"/>
<path d="M52.6566 21.424C52.3206 21.424 51.9886 21.372 51.6606 21.268C51.3326 21.164 51.0646 21.02 50.8566 20.836L51.5406 19.504C51.6846 19.632 51.8486 19.732 52.0326 19.804C52.2246 19.876 52.4126 19.912 52.5966 19.912C52.8606 19.912 53.0686 19.848 53.2206 19.72C53.3806 19.6 53.5246 19.396 53.6526 19.108L53.9886 18.316L54.1326 18.112L56.4486 12.544H58.2486L55.3326 19.396C55.1246 19.916 54.8846 20.324 54.6126 20.62C54.3486 20.916 54.0526 21.124 53.7246 21.244C53.4046 21.364 53.0486 21.424 52.6566 21.424ZM53.7606 19.252L50.8806 12.544H52.8126L55.0446 17.944L53.7606 19.252Z"/>
<path d="M68.3029 10.6H70.2469V19H68.3029V10.6ZM64.4869 19H62.5429V10.6H64.4869V19ZM68.4469 15.556H64.3429V13.912H68.4469V15.556Z"/>
<path d="M76.0623 19V17.74L75.9423 17.464V15.208C75.9423 14.808 75.8183 14.496 75.5703 14.272C75.3303 14.048 74.9583 13.936 74.4543 13.936C74.1103 13.936 73.7703 13.992 73.4343 14.104C73.1063 14.208 72.8263 14.352 72.5943 14.536L71.9223 13.228C72.2743 12.98 72.6983 12.788 73.1943 12.652C73.6903 12.516 74.1943 12.448 74.7063 12.448C75.6903 12.448 76.4543 12.68 76.9983 13.144C77.5423 13.608 77.8143 14.332 77.8143 15.316V19H76.0623ZM74.0943 19.096C73.5903 19.096 73.1583 19.012 72.7983 18.844C72.4383 18.668 72.1623 18.432 71.9703 18.136C71.7783 17.84 71.6823 17.508 71.6823 17.14C71.6823 16.756 71.7743 16.42 71.9583 16.132C72.1503 15.844 72.4503 15.62 72.8583 15.46C73.2663 15.292 73.7983 15.208 74.4543 15.208H76.1703V16.3H74.6583C74.2183 16.3 73.9143 16.372 73.7463 16.516C73.5863 16.66 73.5063 16.84 73.5063 17.056C73.5063 17.296 73.5983 17.488 73.7823 17.632C73.9743 17.768 74.2343 17.836 74.5623 17.836C74.8743 17.836 75.1543 17.764 75.4023 17.62C75.6503 17.468 75.8303 17.248 75.9423 16.96L76.2303 17.824C76.0943 18.24 75.8463 18.556 75.4863 18.772C75.1263 18.988 74.6623 19.096 74.0943 19.096Z"/>
<path d="M83.3245 19.096C82.7565 19.096 82.2685 18.976 81.8605 18.736C81.4525 18.496 81.1405 18.132 80.9245 17.644C80.7085 17.148 80.6005 16.524 80.6005 15.772C80.6005 15.012 80.7125 14.388 80.9365 13.9C81.1685 13.412 81.4885 13.048 81.8965 12.808C82.3045 12.568 82.7805 12.448 83.3245 12.448C83.9325 12.448 84.4765 12.584 84.9565 12.856C85.4445 13.128 85.8285 13.512 86.1085 14.008C86.3965 14.504 86.5405 15.092 86.5405 15.772C86.5405 16.444 86.3965 17.028 86.1085 17.524C85.8285 18.02 85.4445 18.408 84.9565 18.688C84.4765 18.96 83.9325 19.096 83.3245 19.096ZM79.5085 19V10.096H81.3805V13.852L81.2605 15.76L81.2965 17.68V19H79.5085ZM83.0005 17.56C83.3125 17.56 83.5885 17.488 83.8285 17.344C84.0765 17.2 84.2725 16.996 84.4165 16.732C84.5685 16.46 84.6445 16.14 84.6445 15.772C84.6445 15.396 84.5685 15.076 84.4165 14.812C84.2725 14.548 84.0765 14.344 83.8285 14.2C83.5885 14.056 83.3125 13.984 83.0005 13.984C82.6885 13.984 82.4085 14.056 82.1605 14.2C81.9125 14.344 81.7165 14.548 81.5725 14.812C81.4285 15.076 81.3565 15.396 81.3565 15.772C81.3565 16.14 81.4285 16.46 81.5725 16.732C81.7165 16.996 81.9125 17.2 82.1605 17.344C82.4085 17.488 82.6885 17.56 83.0005 17.56Z"/>
<path d="M87.7937 19V12.544H89.6657V19H87.7937ZM88.7297 11.644C88.3857 11.644 88.1057 11.544 87.8897 11.344C87.6737 11.144 87.5657 10.896 87.5657 10.6C87.5657 10.304 87.6737 10.056 87.8897 9.856C88.1057 9.656 88.3857 9.556 88.7297 9.556C89.0737 9.556 89.3537 9.652 89.5697 9.844C89.7857 10.028 89.8937 10.268 89.8937 10.564C89.8937 10.876 89.7857 11.136 89.5697 11.344C89.3617 11.544 89.0817 11.644 88.7297 11.644Z"/>
<path d="M94.0431 19.096C93.2831 19.096 92.6911 18.904 92.2671 18.52C91.8431 18.128 91.6311 17.548 91.6311 16.78V11.116H93.5031V16.756C93.5031 17.028 93.5751 17.24 93.7191 17.392C93.8631 17.536 94.0591 17.608 94.3071 17.608C94.6031 17.608 94.8551 17.528 95.0631 17.368L95.5671 18.688C95.3751 18.824 95.1431 18.928 94.8711 19C94.6071 19.064 94.3311 19.096 94.0431 19.096ZM90.6351 14.128V12.688H95.1111V14.128H90.6351Z"/>
<path d="M98.7899 19.096C98.2379 19.096 97.7059 19.032 97.1939 18.904C96.6899 18.768 96.2899 18.6 95.9939 18.4L96.6179 17.056C96.9139 17.24 97.2619 17.392 97.6619 17.512C98.0699 17.624 98.4699 17.68 98.8619 17.68C99.2939 17.68 99.5979 17.628 99.7739 17.524C99.9579 17.42 100.05 17.276 100.05 17.092C100.05 16.94 99.9779 16.828 99.8339 16.756C99.6979 16.676 99.5139 16.616 99.2819 16.576C99.0499 16.536 98.7939 16.496 98.5139 16.456C98.2419 16.416 97.9659 16.364 97.6859 16.3C97.4059 16.228 97.1499 16.124 96.9179 15.988C96.6859 15.852 96.4979 15.668 96.3539 15.436C96.2179 15.204 96.1499 14.904 96.1499 14.536C96.1499 14.128 96.2659 13.768 96.4979 13.456C96.7379 13.144 97.0819 12.9 97.5299 12.724C97.9779 12.54 98.5139 12.448 99.1379 12.448C99.5779 12.448 100.026 12.496 100.482 12.592C100.938 12.688 101.318 12.828 101.622 13.012L100.998 14.344C100.686 14.16 100.37 14.036 100.05 13.972C99.7379 13.9 99.4339 13.864 99.1379 13.864C98.7219 13.864 98.4179 13.92 98.2259 14.032C98.0339 14.144 97.9379 14.288 97.9379 14.464C97.9379 14.624 98.0059 14.744 98.1419 14.824C98.2859 14.904 98.4739 14.968 98.7059 15.016C98.9379 15.064 99.1899 15.108 99.4619 15.148C99.7419 15.18 100.022 15.232 100.302 15.304C100.582 15.376 100.834 15.48 101.058 15.616C101.29 15.744 101.478 15.924 101.622 16.156C101.766 16.38 101.838 16.676 101.838 17.044C101.838 17.444 101.718 17.8 101.478 18.112C101.238 18.416 100.89 18.656 100.434 18.832C99.9859 19.008 99.4379 19.096 98.7899 19.096Z"/>
</mask>
<path d="M2 15C2 7.8203 7.8203 2 15 2H96C103.18 2 109 7.8203 109 15C109 22.1797 103.18 28 96 28H15C7.8203 28 2 22.1797 2 15Z" fill="#FFDAA7"/>
<path d="M15.756 10.6H17.7V19H15.756V10.6ZM11.94 19H9.996V10.6H11.94V19ZM15.9 15.556H11.796V13.912H15.9V15.556Z" fill="#306A02"/>
<path d="M22.7594 19.096C22.0234 19.096 21.3754 18.952 20.8154 18.664C20.2634 18.376 19.8354 17.984 19.5314 17.488C19.2274 16.984 19.0754 16.412 19.0754 15.772C19.0754 15.124 19.2234 14.552 19.5194 14.056C19.8234 13.552 20.2354 13.16 20.7554 12.88C21.2754 12.592 21.8634 12.448 22.5194 12.448C23.1514 12.448 23.7194 12.584 24.2234 12.856C24.7354 13.12 25.1394 13.504 25.4354 14.008C25.7314 14.504 25.8794 15.1 25.8794 15.796C25.8794 15.868 25.8754 15.952 25.8674 16.048C25.8594 16.136 25.8514 16.22 25.8434 16.3H20.5994V15.208H24.8594L24.1394 15.532C24.1394 15.196 24.0714 14.904 23.9354 14.656C23.7994 14.408 23.6114 14.216 23.3714 14.08C23.1314 13.936 22.8514 13.864 22.5314 13.864C22.2114 13.864 21.9274 13.936 21.6794 14.08C21.4394 14.216 21.2514 14.412 21.1154 14.668C20.9794 14.916 20.9114 15.212 20.9114 15.556V15.844C20.9114 16.196 20.9874 16.508 21.1394 16.78C21.2994 17.044 21.5194 17.248 21.7994 17.392C22.0874 17.528 22.4234 17.596 22.8074 17.596C23.1514 17.596 23.4514 17.544 23.7074 17.44C23.9714 17.336 24.2114 17.18 24.4274 16.972L25.4234 18.052C25.1274 18.388 24.7554 18.648 24.3074 18.832C23.8594 19.008 23.3434 19.096 22.7594 19.096Z" fill="#306A02"/>
<path d="M30.9099 19V17.74L30.7899 17.464V15.208C30.7899 14.808 30.6659 14.496 30.4179 14.272C30.1779 14.048 29.8059 13.936 29.3019 13.936C28.9579 13.936 28.6179 13.992 28.2819 14.104C27.9539 14.208 27.6739 14.352 27.4419 14.536L26.7699 13.228C27.1219 12.98 27.5459 12.788 28.0419 12.652C28.5379 12.516 29.0419 12.448 29.5539 12.448C30.5379 12.448 31.3019 12.68 31.8459 13.144C32.3899 13.608 32.6619 14.332 32.6619 15.316V19H30.9099ZM28.9419 19.096C28.4379 19.096 28.0059 19.012 27.6459 18.844C27.2859 18.668 27.0099 18.432 26.8179 18.136C26.6259 17.84 26.5299 17.508 26.5299 17.14C26.5299 16.756 26.6219 16.42 26.8059 16.132C26.9979 15.844 27.2979 15.62 27.7059 15.46C28.1139 15.292 28.6459 15.208 29.3019 15.208H31.0179V16.3H29.5059C29.0659 16.3 28.7619 16.372 28.5939 16.516C28.4339 16.66 28.3539 16.84 28.3539 17.056C28.3539 17.296 28.4459 17.488 28.6299 17.632C28.8219 17.768 29.0819 17.836 29.4099 17.836C29.7219 17.836 30.0019 17.764 30.2499 17.62C30.4979 17.468 30.6779 17.248 30.7899 16.96L31.0779 17.824C30.9419 18.24 30.6939 18.556 30.3339 18.772C29.9739 18.988 29.5099 19.096 28.9419 19.096Z" fill="#306A02"/>
<path d="M34.3562 19V10.096H36.2282V19H34.3562Z" fill="#306A02"/>
<path d="M41.086 19.096C40.326 19.096 39.734 18.904 39.31 18.52C38.886 18.128 38.674 17.548 38.674 16.78V11.116H40.546V16.756C40.546 17.028 40.618 17.24 40.762 17.392C40.906 17.536 41.102 17.608 41.35 17.608C41.646 17.608 41.898 17.528 42.106 17.368L42.61 18.688C42.418 18.824 42.186 18.928 41.914 19C41.65 19.064 41.374 19.096 41.086 19.096ZM37.678 14.128V12.688H42.154V14.128H37.678Z" fill="#306A02"/>
<path d="M47.5849 12.448C48.0969 12.448 48.5529 12.552 48.9529 12.76C49.3609 12.96 49.6809 13.272 49.9129 13.696C50.1449 14.112 50.2609 14.648 50.2609 15.304V19H48.3889V15.592C48.3889 15.072 48.2729 14.688 48.0409 14.44C47.8169 14.192 47.4969 14.068 47.0809 14.068C46.7849 14.068 46.5169 14.132 46.2769 14.26C46.0449 14.38 45.8609 14.568 45.7249 14.824C45.5969 15.08 45.5329 15.408 45.5329 15.808V19H43.6609V10.096H45.5329V14.332L45.1129 13.792C45.3449 13.36 45.6769 13.028 46.1089 12.796C46.5409 12.564 47.0329 12.448 47.5849 12.448Z" fill="#306A02"/>
<path d="M52.6566 21.424C52.3206 21.424 51.9886 21.372 51.6606 21.268C51.3326 21.164 51.0646 21.02 50.8566 20.836L51.5406 19.504C51.6846 19.632 51.8486 19.732 52.0326 19.804C52.2246 19.876 52.4126 19.912 52.5966 19.912C52.8606 19.912 53.0686 19.848 53.2206 19.72C53.3806 19.6 53.5246 19.396 53.6526 19.108L53.9886 18.316L54.1326 18.112L56.4486 12.544H58.2486L55.3326 19.396C55.1246 19.916 54.8846 20.324 54.6126 20.62C54.3486 20.916 54.0526 21.124 53.7246 21.244C53.4046 21.364 53.0486 21.424 52.6566 21.424ZM53.7606 19.252L50.8806 12.544H52.8126L55.0446 17.944L53.7606 19.252Z" fill="#306A02"/>
<path d="M68.3029 10.6H70.2469V19H68.3029V10.6ZM64.4869 19H62.5429V10.6H64.4869V19ZM68.4469 15.556H64.3429V13.912H68.4469V15.556Z" fill="#306A02"/>
<path d="M76.0623 19V17.74L75.9423 17.464V15.208C75.9423 14.808 75.8183 14.496 75.5703 14.272C75.3303 14.048 74.9583 13.936 74.4543 13.936C74.1103 13.936 73.7703 13.992 73.4343 14.104C73.1063 14.208 72.8263 14.352 72.5943 14.536L71.9223 13.228C72.2743 12.98 72.6983 12.788 73.1943 12.652C73.6903 12.516 74.1943 12.448 74.7063 12.448C75.6903 12.448 76.4543 12.68 76.9983 13.144C77.5423 13.608 77.8143 14.332 77.8143 15.316V19H76.0623ZM74.0943 19.096C73.5903 19.096 73.1583 19.012 72.7983 18.844C72.4383 18.668 72.1623 18.432 71.9703 18.136C71.7783 17.84 71.6823 17.508 71.6823 17.14C71.6823 16.756 71.7743 16.42 71.9583 16.132C72.1503 15.844 72.4503 15.62 72.8583 15.46C73.2663 15.292 73.7983 15.208 74.4543 15.208H76.1703V16.3H74.6583C74.2183 16.3 73.9143 16.372 73.7463 16.516C73.5863 16.66 73.5063 16.84 73.5063 17.056C73.5063 17.296 73.5983 17.488 73.7823 17.632C73.9743 17.768 74.2343 17.836 74.5623 17.836C74.8743 17.836 75.1543 17.764 75.4023 17.62C75.6503 17.468 75.8303 17.248 75.9423 16.96L76.2303 17.824C76.0943 18.24 75.8463 18.556 75.4863 18.772C75.1263 18.988 74.6623 19.096 74.0943 19.096Z" fill="#306A02"/>
<path d="M83.3245 19.096C82.7565 19.096 82.2685 18.976 81.8605 18.736C81.4525 18.496 81.1405 18.132 80.9245 17.644C80.7085 17.148 80.6005 16.524 80.6005 15.772C80.6005 15.012 80.7125 14.388 80.9365 13.9C81.1685 13.412 81.4885 13.048 81.8965 12.808C82.3045 12.568 82.7805 12.448 83.3245 12.448C83.9325 12.448 84.4765 12.584 84.9565 12.856C85.4445 13.128 85.8285 13.512 86.1085 14.008C86.3965 14.504 86.5405 15.092 86.5405 15.772C86.5405 16.444 86.3965 17.028 86.1085 17.524C85.8285 18.02 85.4445 18.408 84.9565 18.688C84.4765 18.96 83.9325 19.096 83.3245 19.096ZM79.5085 19V10.096H81.3805V13.852L81.2605 15.76L81.2965 17.68V19H79.5085ZM83.0005 17.56C83.3125 17.56 83.5885 17.488 83.8285 17.344C84.0765 17.2 84.2725 16.996 84.4165 16.732C84.5685 16.46 84.6445 16.14 84.6445 15.772C84.6445 15.396 84.5685 15.076 84.4165 14.812C84.2725 14.548 84.0765 14.344 83.8285 14.2C83.5885 14.056 83.3125 13.984 83.0005 13.984C82.6885 13.984 82.4085 14.056 82.1605 14.2C81.9125 14.344 81.7165 14.548 81.5725 14.812C81.4285 15.076 81.3565 15.396 81.3565 15.772C81.3565 16.14 81.4285 16.46 81.5725 16.732C81.7165 16.996 81.9125 17.2 82.1605 17.344C82.4085 17.488 82.6885 17.56 83.0005 17.56Z" fill="#306A02"/>
<path d="M87.7937 19V12.544H89.6657V19H87.7937ZM88.7297 11.644C88.3857 11.644 88.1057 11.544 87.8897 11.344C87.6737 11.144 87.5657 10.896 87.5657 10.6C87.5657 10.304 87.6737 10.056 87.8897 9.856C88.1057 9.656 88.3857 9.556 88.7297 9.556C89.0737 9.556 89.3537 9.652 89.5697 9.844C89.7857 10.028 89.8937 10.268 89.8937 10.564C89.8937 10.876 89.7857 11.136 89.5697 11.344C89.3617 11.544 89.0817 11.644 88.7297 11.644Z" fill="#306A02"/>
<path d="M94.0431 19.096C93.2831 19.096 92.6911 18.904 92.2671 18.52C91.8431 18.128 91.6311 17.548 91.6311 16.78V11.116H93.5031V16.756C93.5031 17.028 93.5751 17.24 93.7191 17.392C93.8631 17.536 94.0591 17.608 94.3071 17.608C94.6031 17.608 94.8551 17.528 95.0631 17.368L95.5671 18.688C95.3751 18.824 95.1431 18.928 94.8711 19C94.6071 19.064 94.3311 19.096 94.0431 19.096ZM90.6351 14.128V12.688H95.1111V14.128H90.6351Z" fill="#306A02"/>
<path d="M98.7899 19.096C98.2379 19.096 97.7059 19.032 97.1939 18.904C96.6899 18.768 96.2899 18.6 95.9939 18.4L96.6179 17.056C96.9139 17.24 97.2619 17.392 97.6619 17.512C98.0699 17.624 98.4699 17.68 98.8619 17.68C99.2939 17.68 99.5979 17.628 99.7739 17.524C99.9579 17.42 100.05 17.276 100.05 17.092C100.05 16.94 99.9779 16.828 99.8339 16.756C99.6979 16.676 99.5139 16.616 99.2819 16.576C99.0499 16.536 98.7939 16.496 98.5139 16.456C98.2419 16.416 97.9659 16.364 97.6859 16.3C97.4059 16.228 97.1499 16.124 96.9179 15.988C96.6859 15.852 96.4979 15.668 96.3539 15.436C96.2179 15.204 96.1499 14.904 96.1499 14.536C96.1499 14.128 96.2659 13.768 96.4979 13.456C96.7379 13.144 97.0819 12.9 97.5299 12.724C97.9779 12.54 98.5139 12.448 99.1379 12.448C99.5779 12.448 100.026 12.496 100.482 12.592C100.938 12.688 101.318 12.828 101.622 13.012L100.998 14.344C100.686 14.16 100.37 14.036 100.05 13.972C99.7379 13.9 99.4339 13.864 99.1379 13.864C98.7219 13.864 98.4179 13.92 98.2259 14.032C98.0339 14.144 97.9379 14.288 97.9379 14.464C97.9379 14.624 98.0059 14.744 98.1419 14.824C98.2859 14.904 98.4739 14.968 98.7059 15.016C98.9379 15.064 99.1899 15.108 99.4619 15.148C99.7419 15.18 100.022 15.232 100.302 15.304C100.582 15.376 100.834 15.48 101.058 15.616C101.29 15.744 101.478 15.924 101.622 16.156C101.766 16.38 101.838 16.676 101.838 17.044C101.838 17.444 101.718 17.8 101.478 18.112C101.238 18.416 100.89 18.656 100.434 18.832C99.9859 19.008 99.4379 19.096 98.7899 19.096Z" fill="#306A02"/>
<path d="M2 15C2 7.8203 7.8203 2 15 2H96C103.18 2 109 7.8203 109 15C109 22.1797 103.18 28 96 28H15C7.8203 28 2 22.1797 2 15Z" stroke="#306A02" stroke-width="3" mask="url(#path-1-outside-1_12_29)"/>
<path d="M15.756 10.6H17.7V19H15.756V10.6ZM11.94 19H9.996V10.6H11.94V19ZM15.9 15.556H11.796V13.912H15.9V15.556Z" stroke="#306A02" stroke-width="3" mask="url(#path-1-outside-1_12_29)"/>
<path d="M22.7594 19.096C22.0234 19.096 21.3754 18.952 20.8154 18.664C20.2634 18.376 19.8354 17.984 19.5314 17.488C19.2274 16.984 19.0754 16.412 19.0754 15.772C19.0754 15.124 19.2234 14.552 19.5194 14.056C19.8234 13.552 20.2354 13.16 20.7554 12.88C21.2754 12.592 21.8634 12.448 22.5194 12.448C23.1514 12.448 23.7194 12.584 24.2234 12.856C24.7354 13.12 25.1394 13.504 25.4354 14.008C25.7314 14.504 25.8794 15.1 25.8794 15.796C25.8794 15.868 25.8754 15.952 25.8674 16.048C25.8594 16.136 25.8514 16.22 25.8434 16.3H20.5994V15.208H24.8594L24.1394 15.532C24.1394 15.196 24.0714 14.904 23.9354 14.656C23.7994 14.408 23.6114 14.216 23.3714 14.08C23.1314 13.936 22.8514 13.864 22.5314 13.864C22.2114 13.864 21.9274 13.936 21.6794 14.08C21.4394 14.216 21.2514 14.412 21.1154 14.668C20.9794 14.916 20.9114 15.212 20.9114 15.556V15.844C20.9114 16.196 20.9874 16.508 21.1394 16.78C21.2994 17.044 21.5194 17.248 21.7994 17.392C22.0874 17.528 22.4234 17.596 22.8074 17.596C23.1514 17.596 23.4514 17.544 23.7074 17.44C23.9714 17.336 24.2114 17.18 24.4274 16.972L25.4234 18.052C25.1274 18.388 24.7554 18.648 24.3074 18.832C23.8594 19.008 23.3434 19.096 22.7594 19.096Z" stroke="#306A02" stroke-width="3" mask="url(#path-1-outside-1_12_29)"/>
<path d="M30.9099 19V17.74L30.7899 17.464V15.208C30.7899 14.808 30.6659 14.496 30.4179 14.272C30.1779 14.048 29.8059 13.936 29.3019 13.936C28.9579 13.936 28.6179 13.992 28.2819 14.104C27.9539 14.208 27.6739 14.352 27.4419 14.536L26.7699 13.228C27.1219 12.98 27.5459 12.788 28.0419 12.652C28.5379 12.516 29.0419 12.448 29.5539 12.448C30.5379 12.448 31.3019 12.68 31.8459 13.144C32.3899 13.608 32.6619 14.332 32.6619 15.316V19H30.9099ZM28.9419 19.096C28.4379 19.096 28.0059 19.012 27.6459 18.844C27.2859 18.668 27.0099 18.432 26.8179 18.136C26.6259 17.84 26.5299 17.508 26.5299 17.14C26.5299 16.756 26.6219 16.42 26.8059 16.132C26.9979 15.844 27.2979 15.62 27.7059 15.46C28.1139 15.292 28.6459 15.208 29.3019 15.208H31.0179V16.3H29.5059C29.0659 16.3 28.7619 16.372 28.5939 16.516C28.4339 16.66 28.3539 16.84 28.3539 17.056C28.3539 17.296 28.4459 17.488 28.6299 17.632C28.8219 17.768 29.0819 17.836 29.4099 17.836C29.7219 17.836 30.0019 17.764 30.2499 17.62C30.4979 17.468 30.6779 17.248 30.7899 16.96L31.0779 17.824C30.9419 18.24 30.6939 18.556 30.3339 18.772C29.9739 18.988 29.5099 19.096 28.9419 19.096Z" stroke="#306A02" stroke-width="3" mask="url(#path-1-outside-1_12_29)"/>
<path d="M34.3562 19V10.096H36.2282V19H34.3562Z" stroke="#306A02" stroke-width="3" mask="url(#path-1-outside-1_12_29)"/>
<path d="M41.086 19.096C40.326 19.096 39.734 18.904 39.31 18.52C38.886 18.128 38.674 17.548 38.674 16.78V11.116H40.546V16.756C40.546 17.028 40.618 17.24 40.762 17.392C40.906 17.536 41.102 17.608 41.35 17.608C41.646 17.608 41.898 17.528 42.106 17.368L42.61 18.688C42.418 18.824 42.186 18.928 41.914 19C41.65 19.064 41.374 19.096 41.086 19.096ZM37.678 14.128V12.688H42.154V14.128H37.678Z" stroke="#306A02" stroke-width="3" mask="url(#path-1-outside-1_12_29)"/>
<path d="M47.5849 12.448C48.0969 12.448 48.5529 12.552 48.9529 12.76C49.3609 12.96 49.6809 13.272 49.9129 13.696C50.1449 14.112 50.2609 14.648 50.2609 15.304V19H48.3889V15.592C48.3889 15.072 48.2729 14.688 48.0409 14.44C47.8169 14.192 47.4969 14.068 47.0809 14.068C46.7849 14.068 46.5169 14.132 46.2769 14.26C46.0449 14.38 45.8609 14.568 45.7249 14.824C45.5969 15.08 45.5329 15.408 45.5329 15.808V19H43.6609V10.096H45.5329V14.332L45.1129 13.792C45.3449 13.36 45.6769 13.028 46.1089 12.796C46.5409 12.564 47.0329 12.448 47.5849 12.448Z" stroke="#306A02" stroke-width="3" mask="url(#path-1-outside-1_12_29)"/>
<path d="M52.6566 21.424C52.3206 21.424 51.9886 21.372 51.6606 21.268C51.3326 21.164 51.0646 21.02 50.8566 20.836L51.5406 19.504C51.6846 19.632 51.8486 19.732 52.0326 19.804C52.2246 19.876 52.4126 19.912 52.5966 19.912C52.8606 19.912 53.0686 19.848 53.2206 19.72C53.3806 19.6 53.5246 19.396 53.6526 19.108L53.9886 18.316L54.1326 18.112L56.4486 12.544H58.2486L55.3326 19.396C55.1246 19.916 54.8846 20.324 54.6126 20.62C54.3486 20.916 54.0526 21.124 53.7246 21.244C53.4046 21.364 53.0486 21.424 52.6566 21.424ZM53.7606 19.252L50.8806 12.544H52.8126L55.0446 17.944L53.7606 19.252Z" stroke="#306A02" stroke-width="3" mask="url(#path-1-outside-1_12_29)"/>
<path d="M68.3029 10.6H70.2469V19H68.3029V10.6ZM64.4869 19H62.5429V10.6H64.4869V19ZM68.4469 15.556H64.3429V13.912H68.4469V15.556Z" stroke="#306A02" stroke-width="3" mask="url(#path-1-outside-1_12_29)"/>
<path d="M76.0623 19V17.74L75.9423 17.464V15.208C75.9423 14.808 75.8183 14.496 75.5703 14.272C75.3303 14.048 74.9583 13.936 74.4543 13.936C74.1103 13.936 73.7703 13.992 73.4343 14.104C73.1063 14.208 72.8263 14.352 72.5943 14.536L71.9223 13.228C72.2743 12.98 72.6983 12.788 73.1943 12.652C73.6903 12.516 74.1943 12.448 74.7063 12.448C75.6903 12.448 76.4543 12.68 76.9983 13.144C77.5423 13.608 77.8143 14.332 77.8143 15.316V19H76.0623ZM74.0943 19.096C73.5903 19.096 73.1583 19.012 72.7983 18.844C72.4383 18.668 72.1623 18.432 71.9703 18.136C71.7783 17.84 71.6823 17.508 71.6823 17.14C71.6823 16.756 71.7743 16.42 71.9583 16.132C72.1503 15.844 72.4503 15.62 72.8583 15.46C73.2663 15.292 73.7983 15.208 74.4543 15.208H76.1703V16.3H74.6583C74.2183 16.3 73.9143 16.372 73.7463 16.516C73.5863 16.66 73.5063 16.84 73.5063 17.056C73.5063 17.296 73.5983 17.488 73.7823 17.632C73.9743 17.768 74.2343 17.836 74.5623 17.836C74.8743 17.836 75.1543 17.764 75.4023 17.62C75.6503 17.468 75.8303 17.248 75.9423 16.96L76.2303 17.824C76.0943 18.24 75.8463 18.556 75.4863 18.772C75.1263 18.988 74.6623 19.096 74.0943 19.096Z" stroke="#306A02" stroke-width="3" mask="url(#path-1-outside-1_12_29)"/>
<path d="M83.3245 19.096C82.7565 19.096 82.2685 18.976 81.8605 18.736C81.4525 18.496 81.1405 18.132 80.9245 17.644C80.7085 17.148 80.6005 16.524 80.6005 15.772C80.6005 15.012 80.7125 14.388 80.9365 13.9C81.1685 13.412 81.4885 13.048 81.8965 12.808C82.3045 12.568 82.7805 12.448 83.3245 12.448C83.9325 12.448 84.4765 12.584 84.9565 12.856C85.4445 13.128 85.8285 13.512 86.1085 14.008C86.3965 14.504 86.5405 15.092 86.5405 15.772C86.5405 16.444 86.3965 17.028 86.1085 17.524C85.8285 18.02 85.4445 18.408 84.9565 18.688C84.4765 18.96 83.9325 19.096 83.3245 19.096ZM79.5085 19V10.096H81.3805V13.852L81.2605 15.76L81.2965 17.68V19H79.5085ZM83.0005 17.56C83.3125 17.56 83.5885 17.488 83.8285 17.344C84.0765 17.2 84.2725 16.996 84.4165 16.732C84.5685 16.46 84.6445 16.14 84.6445 15.772C84.6445 15.396 84.5685 15.076 84.4165 14.812C84.2725 14.548 84.0765 14.344 83.8285 14.2C83.5885 14.056 83.3125 13.984 83.0005 13.984C82.6885 13.984 82.4085 14.056 82.1605 14.2C81.9125 14.344 81.7165 14.548 81.5725 14.812C81.4285 15.076 81.3565 15.396 81.3565 15.772C81.3565 16.14 81.4285 16.46 81.5725 16.732C81.7165 16.996 81.9125 17.2 82.1605 17.344C82.4085 17.488 82.6885 17.56 83.0005 17.56Z" stroke="#306A02" stroke-width="3" mask="url(#path-1-outside-1_12_29)"/>
<path d="M87.7937 19V12.544H89.6657V19H87.7937ZM88.7297 11.644C88.3857 11.644 88.1057 11.544 87.8897 11.344C87.6737 11.144 87.5657 10.896 87.5657 10.6C87.5657 10.304 87.6737 10.056 87.8897 9.856C88.1057 9.656 88.3857 9.556 88.7297 9.556C89.0737 9.556 89.3537 9.652 89.5697 9.844C89.7857 10.028 89.8937 10.268 89.8937 10.564C89.8937 10.876 89.7857 11.136 89.5697 11.344C89.3617 11.544 89.0817 11.644 88.7297 11.644Z" stroke="#306A02" stroke-width="3" mask="url(#path-1-outside-1_12_29)"/>
<path d="M94.0431 19.096C93.2831 19.096 92.6911 18.904 92.2671 18.52C91.8431 18.128 91.6311 17.548 91.6311 16.78V11.116H93.5031V16.756C93.5031 17.028 93.5751 17.24 93.7191 17.392C93.8631 17.536 94.0591 17.608 94.3071 17.608C94.6031 17.608 94.8551 17.528 95.0631 17.368L95.5671 18.688C95.3751 18.824 95.1431 18.928 94.8711 19C94.6071 19.064 94.3311 19.096 94.0431 19.096ZM90.6351 14.128V12.688H95.1111V14.128H90.6351Z" stroke="#306A02" stroke-width="3" mask="url(#path-1-outside-1_12_29)"/>
<path d="M98.7899 19.096C98.2379 19.096 97.7059 19.032 97.1939 18.904C96.6899 18.768 96.2899 18.6 95.9939 18.4L96.6179 17.056C96.9139 17.24 97.2619 17.392 97.6619 17.512C98.0699 17.624 98.4699 17.68 98.8619 17.68C99.2939 17.68 99.5979 17.628 99.7739 17.524C99.9579 17.42 100.05 17.276 100.05 17.092C100.05 16.94 99.9779 16.828 99.8339 16.756C99.6979 16.676 99.5139 16.616 99.2819 16.576C99.0499 16.536 98.7939 16.496 98.5139 16.456C98.2419 16.416 97.9659 16.364 97.6859 16.3C97.4059 16.228 97.1499 16.124 96.9179 15.988C96.6859 15.852 96.4979 15.668 96.3539 15.436C96.2179 15.204 96.1499 14.904 96.1499 14.536C96.1499 14.128 96.2659 13.768 96.4979 13.456C96.7379 13.144 97.0819 12.9 97.5299 12.724C97.9779 12.54 98.5139 12.448 99.1379 12.448C99.5779 12.448 100.026 12.496 100.482 12.592C100.938 12.688 101.318 12.828 101.622 13.012L100.998 14.344C100.686 14.16 100.37 14.036 100.05 13.972C99.7379 13.9 99.4339 13.864 99.1379 13.864C98.7219 13.864 98.4179 13.92 98.2259 14.032C98.0339 14.144 97.9379 14.288 97.9379 14.464C97.9379 14.624 98.0059 14.744 98.1419 14.824C98.2859 14.904 98.4739 14.968 98.7059 15.016C98.9379 15.064 99.1899 15.108 99.4619 15.148C99.7419 15.18 100.022 15.232 100.302 15.304C100.582 15.376 100.834 15.48 101.058 15.616C101.29 15.744 101.478 15.924 101.622 16.156C101.766 16.38 101.838 16.676 101.838 17.044C101.838 17.444 101.718 17.8 101.478 18.112C101.238 18.416 100.89 18.656 100.434 18.832C99.9859 19.008 99.4379 19.096 98.7899 19.096Z" stroke="#306A02" stroke-width="3" mask="url(#path-1-outside-1_12_29)"/>
</svg>
